<?xml version="1.0" standalone="no"?>
<!DOCTYPE svg PUBLIC "-//W3C//DTD SVG 20010904//EN"
 "http://www.w3.org/TR/2001/REC-SVG-20010904/DTD/svg10.dtd">
<svg version="1.0" xmlns="http://www.w3.org/2000/svg"
 width="2000.000000pt" height="2000.000000pt" viewBox="0 0 2000.000000 2000.000000"
 preserveAspectRatio="xMidYMid meet">
<metadata>
Created by potrace 1.14, written by Peter Selinger 2001-2017
</metadata>
<g transform="translate(0.000000,2000.000000) scale(0.100000,-0.100000)"
fill="#000000" stroke="none">
<path d="M9618 19995 c-2 -1 -68 -6 -148 -10 -80 -4 -161 -8 -180 -10 -19 -1
-73 -6 -120 -10 -47 -3 -101 -8 -120 -10 -19 -2 -66 -6 -105 -9 -38 -4 -81 -8
-95 -11 -14 -2 -47 -7 -75 -10 -67 -7 -134 -15 -165 -21 -14 -2 -45 -6 -70
-10 -25 -3 -56 -7 -70 -10 -14 -2 -41 -7 -60 -10 -83 -13 -321 -56 -385 -69
-38 -8 -81 -17 -95 -19 -22 -4 -351 -80 -390 -90 -8 -2 -44 -11 -80 -21 -36
-9 -78 -20 -95 -26 -16 -5 -101 -29 -188 -54 -307 -89 -710 -231 -992 -350
-60 -25 -114 -48 -120 -49 -12 -4 -76 -32 -260 -116 -212 -97 -589 -291 -753
-389 -29 -17 -55 -31 -57 -31 -2 0 -164 -97 -265 -159 -89 -55 -216 -136 -220
-141 -3 -3 -32 -23 -65 -45 -306 -198 -797 -578 -1111 -860 -224 -201 -538
-513 -749 -746 -74 -81 -265 -304 -330 -384 -22 -28 -48 -59 -57 -70 -47 -56
-194 -248 -278 -365 -52 -72 -99 -136 -105 -143 -26 -31 -252 -374 -304 -459
-9 -15 -48 -80 -87 -145 -40 -65 -82 -136 -95 -158 -87 -153 -153 -273 -194
-355 -27 -52 -54 -98 -59 -102 -6 -4 -8 -8 -5 -8 4 0 -29 -72 -72 -161 -346
-702 -635 -1553 -793 -2329 -3 -14 -7 -36 -10 -50 -11 -48 -16 -75 -21 -110
-3 -19 -10 -55 -15 -80 -5 -25 -12 -61 -15 -80 -2 -19 -9 -62 -15 -95 -6 -33
-13 -73 -15 -90 -2 -16 -10 -79 -19 -140 -8 -60 -18 -134 -21 -164 -4 -30 -8
-62 -10 -73 -2 -10 -7 -55 -10 -101 -4 -45 -8 -89 -10 -97 -2 -8 -7 -58 -10
-110 -3 -52 -8 -108 -10 -125 -31 -236 -26 -1163 9 -1551 4 -38 9 -98 12 -134
3 -36 7 -76 9 -90 2 -14 6 -50 10 -80 5 -47 16 -134 30 -245 2 -16 9 -64 16
-105 6 -41 13 -88 15 -105 2 -16 11 -68 20 -115 8 -47 17 -98 20 -115 4 -25
67 -331 79 -385 1 -8 8 -33 13 -55 6 -22 13 -51 16 -65 2 -14 14 -63 26 -110
12 -47 23 -92 25 -100 64 -274 238 -797 395 -1190 140 -350 367 -830 496
-1053 19 -32 34 -60 34 -62 0 -5 182 -316 240 -410 130 -211 342 -521 514
-750 80 -107 281 -362 295 -375 4 -3 23 -26 44 -52 21 -26 43 -53 50 -60 7 -7
41 -47 77 -88 226 -261 651 -690 866 -877 36 -31 128 -111 159 -138 17 -15 50
-43 75 -63 25 -20 47 -40 50 -43 14 -16 314 -250 454 -354 186 -138 567 -396
681 -461 11 -6 85 -50 164 -98 79 -47 145 -86 147 -86 2 0 25 -13 51 -28 121
-71 561 -296 708 -362 516 -232 998 -409 1485 -543 161 -45 393 -104 456 -117
27 -5 103 -21 169 -36 66 -14 131 -27 145 -30 14 -2 59 -11 100 -19 41 -8 89
-16 105 -19 17 -3 59 -10 95 -16 80 -14 91 -15 160 -24 30 -4 66 -9 80 -11 54
-8 268 -35 325 -40 33 -3 78 -8 100 -10 36 -4 92 -8 240 -20 185 -14 387 -20
710 -20 426 0 670 10 955 40 25 3 72 7 105 11 80 8 96 10 265 29 25 3 54 8 65
10 11 2 43 7 70 10 28 3 59 8 71 10 12 3 39 7 60 10 82 12 383 67 464 85 47
10 96 21 110 24 14 2 57 12 95 21 39 9 77 18 85 20 141 30 738 199 825 235 11
4 99 36 195 70 172 61 376 139 435 165 17 8 71 30 120 51 50 20 128 54 173 75
46 22 86 39 88 39 6 0 409 200 499 248 352 188 632 357 959 580 93 63 176 121
185 128 9 7 72 54 141 105 106 78 249 188 325 250 45 38 291 244 301 254 6 5
46 42 90 80 129 115 209 191 388 370 182 181 362 373 466 495 22 26 50 58 62
72 13 14 41 47 63 74 22 26 54 64 71 84 41 46 275 348 339 436 115 159 273
389 320 464 28 45 56 87 63 95 6 7 12 16 12 20 0 3 17 32 38 63 34 50 104 166
170 282 11 19 45 80 77 135 31 55 57 105 58 110 1 6 5 12 9 15 10 8 233 457
296 595 224 493 375 916 553 1541 29 105 106 431 134 569 40 202 59 306 80
445 8 52 17 104 19 115 2 11 7 45 10 76 4 31 8 65 10 76 2 10 7 46 11 78 3 33
8 76 10 95 3 19 7 62 11 95 3 33 8 73 9 89 2 16 7 70 10 120 4 50 8 108 10
129 27 262 27 1114 0 1422 -2 28 -7 82 -10 120 -9 101 -16 186 -20 220 -2 17
-6 59 -10 95 -4 36 -8 76 -11 90 -2 14 -6 45 -9 70 -5 40 -26 183 -41 280 -2
19 -9 58 -14 85 -5 28 -12 67 -14 87 -3 21 -11 59 -17 85 -6 27 -12 59 -14 73
-7 51 -82 392 -115 520 -12 47 -23 92 -25 101 -11 57 -128 446 -182 609 -72
216 -154 442 -184 507 -10 24 -19 49 -19 56 0 7 -4 17 -8 22 -5 6 -19 37 -32
70 -24 60 -110 260 -170 390 -40 89 -259 527 -270 540 -4 6 -26 46 -49 89 -33
63 -233 403 -294 500 -81 130 -327 487 -429 625 -121 162 -373 481 -429 542
-13 14 -51 57 -84 95 -127 147 -260 288 -455 484 -143 142 -336 326 -406 387
-49 42 -148 129 -158 138 -14 14 -280 231 -326 267 -19 15 -69 53 -110 85
-126 98 -317 235 -480 345 -205 137 -428 278 -440 278 -6 0 -10 5 -10 10 0 6
-4 10 -9 10 -5 0 -45 21 -88 46 -161 96 -309 177 -478 262 -71 35 -131 69
-133 73 -2 5 -10 9 -18 9 -7 0 -48 18 -91 39 -572 287 -1477 601 -2133 740
-30 6 -95 21 -144 31 -49 11 -103 22 -120 25 -17 2 -56 9 -86 15 -86 18 -88
18 -220 39 -121 20 -183 29 -245 37 -16 2 -46 6 -65 9 -19 3 -53 7 -75 9 -119
13 -162 19 -179 22 -10 2 -55 6 -100 10 -45 3 -97 7 -116 9 -19 2 -82 7 -140
10 -58 4 -125 9 -150 11 -52 5 -927 14 -932 9z"/>
</g>
</svg>
