<svg width="65" height="65" viewBox="0 0 65 65" fill="none" xmlns="http://www.w3.org/2000/svg">
<circle cx="32.5" cy="32.5" r="32.5" fill="black"/>
<path d="M20.5458 33.3354C20.7166 33.306 20.8616 33.3622 20.9807 33.504C21.113 33.6435 21.203 33.8512 21.2506 34.1272C21.3412 34.6527 21.2867 35.0816 21.0869 35.4137C20.6026 36.2143 20.0771 36.8936 19.5103 37.4513C18.9567 38.0069 18.2725 38.3549 17.4579 38.4954C16.7878 38.611 16.2491 38.5077 15.8417 38.1856C15.4321 37.8503 15.1638 37.3148 15.0369 36.579C14.9735 36.2111 14.9521 35.5383 14.9729 34.5605C15.0009 33.7033 14.9878 33.117 14.9334 32.8016C14.8971 32.5914 14.8067 32.4988 14.6622 32.5237C14.4914 32.5532 14.2868 32.8185 14.0485 33.3196C13.808 33.8076 13.5923 34.4401 13.4016 35.2171C13.211 35.9942 13.0862 36.8005 13.0273 37.636C12.959 38.7302 12.4321 39.3623 11.4467 39.5322C11.0525 39.6002 10.7659 39.5076 10.5869 39.2543C10.4188 38.9857 10.2713 38.4834 10.1444 37.7476C10.0718 37.3272 10.0206 36.991 9.9907 36.7391L9.73845 35.159C9.38943 33.1355 9.22935 30.9915 9.25819 28.727C9.30017 26.4602 9.59386 24.5153 10.1393 22.8923C10.6955 21.2539 11.5387 20.3373 12.6687 20.1424C13.2731 20.0381 13.8045 20.2171 14.2631 20.6792C14.7325 21.1259 15.0386 21.7631 15.1814 22.5909C15.4103 23.918 15.2607 25.3645 14.7325 26.9304C14.202 28.4831 13.2273 30.3628 11.8084 32.5694C11.8868 33.2595 11.9884 33.9658 12.113 34.6885C12.354 33.4969 12.6772 32.5075 13.0827 31.7205C13.499 30.918 13.9373 30.3215 14.3976 29.9309C14.8711 29.5381 15.3246 29.3043 15.7582 29.2295C16.6122 29.0822 17.1129 29.4355 17.2602 30.2896C17.3486 30.802 17.3639 31.7533 17.306 33.1433C17.2535 34.3295 17.259 35.1066 17.3224 35.4745C17.4131 36 17.6489 36.23 18.03 36.1642C18.2928 36.1189 18.5743 35.908 18.8747 35.5314C19.186 35.1395 19.5815 34.5301 20.0612 33.7032C20.1872 33.492 20.3487 33.3694 20.5458 33.3354ZM12.5913 22.165C12.3548 22.2057 12.1509 22.5927 11.9797 23.3258C11.8062 24.0458 11.6813 25.0077 11.6048 26.2115C11.5392 27.4 11.5377 28.6856 11.6003 30.0684C12.2495 28.9687 12.7394 27.8086 13.0701 26.5879C13.4139 25.365 13.5065 24.2937 13.3478 23.374C13.2753 22.9535 13.1738 22.6395 13.0433 22.432C12.9128 22.2245 12.7621 22.1355 12.5913 22.165ZM22.6996 37.5913C21.8849 37.7318 21.1835 37.5483 20.5954 37.0409C20.0072 36.5335 19.6305 35.8002 19.465 34.8411C19.2837 33.7899 19.3557 32.756 19.6809 31.7392C20.0039 30.7093 20.5174 29.8428 21.2215 29.1395C21.9364 28.4209 22.7471 27.9834 23.6538 27.827C23.9428 27.7772 24.1435 27.8034 24.2559 27.9058C24.3792 27.9928 24.4986 28.1751 24.6141 28.4529C24.881 28.3527 25.1655 28.2766 25.4677 28.2245C26.1115 28.1134 26.4731 28.2878 26.5524 28.7477C26.6 29.0236 26.6148 29.6976 26.5967 30.7696C26.5552 32.3327 26.5854 33.41 26.6874 34.0012C26.7214 34.1983 26.7945 34.348 26.9069 34.4504C27.0324 34.5506 27.174 34.587 27.3317 34.5598C27.5813 34.5168 27.8563 34.307 28.1567 33.9304C28.4548 33.5408 28.8437 32.9325 29.3235 32.1056C29.4494 31.8944 29.611 31.7718 29.8081 31.7378C29.9789 31.7084 30.1239 31.7646 30.243 31.9064C30.3753 32.0459 30.4653 32.2536 30.5129 32.5296C30.6035 33.0551 30.549 33.484 30.3492 33.8161C29.9261 34.5791 29.4519 35.2427 28.9269 35.8068C28.4018 36.371 27.8567 36.7018 27.2917 36.7992C26.8581 36.874 26.4325 36.7986 26.0147 36.573C25.6078 36.332 25.2682 35.9711 24.9959 35.4904C24.503 36.712 23.7376 37.4122 22.6996 37.5913ZM23.0657 35.4783C23.3548 35.4284 23.6013 35.21 23.8051 34.8231C24.009 34.4361 24.1213 33.95 24.1421 33.3646L24.2458 29.6124C23.6962 29.7207 23.2201 30.0193 22.8173 30.5082C22.4254 30.9817 22.1482 31.5707 21.9856 32.2753C21.823 32.9798 21.8051 33.7 21.932 34.4358C22.0023 34.8431 22.1333 35.1318 22.3249 35.3016C22.5297 35.4693 22.7767 35.5282 23.0657 35.4783ZM36.3602 28.4564C36.6492 28.4065 36.9104 28.4697 37.1438 28.646C37.388 28.8068 37.5362 29.0383 37.5883 29.3405C37.6178 29.5113 37.6101 29.7021 37.5652 29.9128C37.4389 30.4352 37.2135 30.8935 36.8891 31.2877C36.5647 31.6819 36.1726 31.9187 35.7127 31.998C35.3448 32.0614 35.0068 31.9844 34.6987 31.767C34.4037 31.5473 34.2177 31.214 34.1407 30.7673C34.0976 30.5176 34.0643 30.246 34.0407 29.9524C34.0307 29.7377 34.0189 29.5909 34.0053 29.512C33.9872 29.4069 33.9473 29.3326 33.8857 29.2891C33.8372 29.2434 33.7801 29.2261 33.7144 29.2375C33.5305 29.2692 33.3194 29.5356 33.0811 30.0368C32.8405 30.5248 32.6249 31.1573 32.4342 31.9343C32.2435 32.7114 32.1187 33.5177 32.0599 34.3531C32.0241 35.0088 31.9324 35.4576 31.7847 35.6995C31.637 35.9415 31.353 36.0987 30.9325 36.1712C30.4332 36.2573 30.0331 36.0558 29.7322 35.5664C29.4445 35.0749 29.2009 34.2509 29.0015 33.0947C28.7069 31.3866 28.67 29.7219 28.891 28.1008C28.9436 27.6994 29.0865 27.3906 29.3198 27.1744C29.564 26.9429 29.9292 26.7852 30.4153 26.7013C30.6781 26.656 30.8677 26.6571 30.9842 26.7047C31.1006 26.7523 31.1747 26.868 31.2065 27.052C31.2427 27.2622 31.2258 27.7522 31.1556 28.522C31.1148 29.0702 31.089 29.5482 31.0782 29.956C31.0674 30.3638 31.0855 30.8613 31.1327 31.4485C31.3714 30.2437 31.6989 29.2401 32.1152 28.4377C32.5315 27.6352 32.9699 27.0387 33.4302 26.6481C33.8905 26.2575 34.3309 26.026 34.7513 25.9534C35.1324 25.8877 35.4407 25.9495 35.6763 26.1389C35.9228 26.3129 36.0823 26.6101 36.1548 27.0306C36.1979 27.2802 36.2072 27.7657 36.1828 28.487L36.3602 28.4564ZM42.5317 34.6171C41.8484 34.7349 41.2956 34.6679 40.8734 34.416C40.4642 34.1618 40.2256 33.8377 40.1576 33.4435C40.0987 33.1019 40.1725 32.7847 40.3791 32.492C40.5857 32.1993 40.9321 32.011 41.4182 31.9272C41.5891 31.8977 41.7895 31.8834 42.0197 31.8843C42.2607 31.8698 42.4415 31.8589 42.562 31.8516C42.49 31.5123 42.3556 31.204 42.159 30.9267C41.9754 30.6472 41.7548 30.3876 41.497 30.1479C41.2369 29.8951 40.9967 29.6794 40.7765 29.5009C40.5029 30.3464 40.2066 31.0605 39.8877 31.6432C39.5819 32.2236 39.2322 32.7845 38.8385 33.326C38.6428 33.6033 38.4135 33.7646 38.1507 33.81C37.9405 33.8462 37.7572 33.8034 37.6009 33.6815C37.4423 33.5465 37.3437 33.3673 37.3052 33.144C37.2599 32.8812 37.3099 32.6223 37.4554 32.3672L37.6572 32.0076C38.2257 30.9895 38.6441 30.1596 38.9123 29.5181C39.0699 29.0985 39.2455 28.5473 39.4389 27.8645C39.63 27.1685 39.8112 26.454 39.9824 25.7209C40.1324 25.0997 40.6015 24.7211 41.3899 24.5851C41.7578 24.5217 42.0197 24.5103 42.1755 24.5511C42.3314 24.5919 42.4218 24.6845 42.4467 24.8291C42.4603 24.9079 42.4556 25.0373 42.4325 25.2171C42.4094 25.397 42.3666 25.5803 42.3041 25.767C42.1491 26.2808 42.1 26.7019 42.1567 27.0304C42.1907 27.2275 42.2937 27.433 42.4659 27.6468C42.6513 27.8584 42.9191 28.1166 43.2693 28.4215C43.785 28.9008 44.1819 29.3195 44.4601 29.6774C44.7492 30.0199 44.9334 30.4211 45.0127 30.881C45.0354 31.0124 45.054 31.1986 45.0685 31.4396C45.6693 31.0789 46.3103 30.2851 46.9917 29.0581C47.1176 28.8469 47.2791 28.7244 47.4762 28.6904C47.647 28.6609 47.792 28.7171 47.9112 28.8589C48.0435 28.9984 48.1335 29.2062 48.181 29.4821C48.2672 29.9814 48.2126 30.4102 48.0173 30.7686C47.5009 31.6966 46.9665 32.3638 46.4142 32.7702C45.8728 33.1613 45.1642 33.4459 44.2884 33.624C43.8399 34.1614 43.2543 34.4924 42.5317 34.6171ZM52.5778 22.8787C52.9982 22.8061 53.3328 22.8634 53.5816 23.0505C53.8412 23.2222 54.0073 23.5183 54.0798 23.9388C54.1387 24.2804 54.1775 24.9367 54.1962 25.9076C54.203 26.7318 54.2294 27.512 54.2752 28.2483C54.3187 28.9714 54.4164 29.7731 54.5683 30.6535C54.6544 31.1528 54.6116 31.5322 54.4399 31.7918C54.2791 32.0361 53.9687 32.1978 53.5088 32.2772C53.0752 32.352 52.7406 32.2947 52.505 32.1053C52.2694 31.9159 52.1131 31.5979 52.036 31.1511C51.9453 30.6255 51.8877 29.7425 51.8632 28.5019C51.8396 27.4236 51.8028 26.7399 51.7529 26.4508C51.7167 26.2406 51.6263 26.148 51.4818 26.1729C51.3109 26.2023 51.1064 26.4676 50.8681 26.9688C50.6276 27.4568 50.4119 28.0893 50.2212 28.8663C50.0305 29.6434 49.9058 30.4497 49.8469 31.2852C49.8089 31.9276 49.7106 32.3776 49.5521 32.6349C49.4044 32.8769 49.1269 33.033 48.7195 33.1032C48.3122 33.1735 47.9851 33.0811 47.7381 32.826C47.5021 32.5555 47.2979 32.1172 47.1257 31.511C46.9535 30.9048 46.7643 30.0038 46.558 28.8081C46.209 26.7847 46.0489 24.6407 46.0778 22.3762C46.1198 20.1094 46.4134 18.1645 46.9589 16.5415C47.5151 14.9031 48.3583 13.9865 49.4882 13.7916C50.0926 13.6873 50.6241 13.8662 51.0827 14.3284C51.5521 14.7751 51.8582 15.4123 52.001 16.2401C52.2299 17.5672 52.0802 19.0136 51.5521 20.5795C51.0216 22.1323 50.0469 24.012 48.628 26.2186C48.7064 26.9087 48.808 27.615 48.9326 28.3377C49.1736 27.146 49.4968 26.1567 49.9022 25.3697C50.3186 24.5672 50.7569 23.9707 51.2172 23.5801C51.6906 23.1873 52.1442 22.9534 52.5778 22.8787ZM49.4109 15.8141C49.1744 15.8549 48.9705 16.2419 48.7993 16.975C48.6258 17.695 48.5008 18.6569 48.4244 19.8607C48.3587 21.0492 48.3572 22.3348 48.4199 23.7176C49.0691 22.6179 49.559 21.4578 49.8897 20.2371C50.2335 19.0142 50.326 17.9429 50.1674 17.0231C50.0949 16.6027 49.9934 16.2887 49.8629 16.0812C49.7324 15.8737 49.5817 15.7847 49.4109 15.8141Z" fill="#4F325A"/>
<path d="M21.0458 32.3354C21.2166 32.306 21.3616 32.3622 21.4807 32.504C21.613 32.6435 21.703 32.8512 21.7506 33.1272C21.8412 33.6527 21.7867 34.0816 21.5869 34.4137C21.1026 35.2143 20.5771 35.8936 20.0103 36.4513C19.4567 37.0069 18.7725 37.3549 17.9579 37.4954C17.2878 37.611 16.7491 37.5077 16.3417 37.1856C15.9321 36.8503 15.6638 36.3148 15.5369 35.579C15.4735 35.2111 15.4521 34.5383 15.4729 33.5605C15.5009 32.7033 15.4878 32.117 15.4334 31.8016C15.3971 31.5914 15.3067 31.4988 15.1622 31.5237C14.9914 31.5532 14.7868 31.8185 14.5485 32.3196C14.308 32.8076 14.0923 33.4401 13.9016 34.2171C13.711 34.9942 13.5862 35.8005 13.5273 36.636C13.459 37.7302 12.9321 38.3623 11.9467 38.5322C11.5525 38.6002 11.2659 38.5076 11.0869 38.2543C10.9188 37.9857 10.7713 37.4834 10.6444 36.7476C10.5718 36.3272 10.5206 35.991 10.4907 35.7391L10.2384 34.159C9.88943 32.1355 9.72935 29.9915 9.75819 27.727C9.80017 25.4602 10.0939 23.5153 10.6393 21.8923C11.1955 20.2539 12.0387 19.3373 13.1687 19.1424C13.7731 19.0381 14.3045 19.2171 14.7631 19.6792C15.2325 20.1259 15.5386 20.7631 15.6814 21.5909C15.9103 22.918 15.7607 24.3645 15.2325 25.9304C14.702 27.4831 13.7273 29.3628 12.3084 31.5694C12.3868 32.2595 12.4884 32.9658 12.613 33.6885C12.854 32.4969 13.1772 31.5075 13.5827 30.7205C13.999 29.918 14.4373 29.3215 14.8976 28.9309C15.3711 28.5381 15.8246 28.3043 16.2582 28.2295C17.1122 28.0822 17.6129 28.4355 17.7602 29.2896C17.8486 29.802 17.8639 30.7533 17.806 32.1433C17.7535 33.3295 17.759 34.1066 17.8224 34.4745C17.9131 35 18.1489 35.23 18.53 35.1642C18.7928 35.1189 19.0743 34.908 19.3747 34.5314C19.686 34.1395 20.0815 33.5301 20.5612 32.7032C20.6872 32.492 20.8487 32.3694 21.0458 32.3354ZM13.0913 21.165C12.8548 21.2057 12.6509 21.5927 12.4797 22.3258C12.3062 23.0458 12.1813 24.0077 12.1048 25.2115C12.0392 26.4 12.0377 27.6856 12.1003 29.0684C12.7495 27.9687 13.2394 26.8086 13.5701 25.5879C13.9139 24.365 14.0065 23.2937 13.8478 22.374C13.7753 21.9535 13.6738 21.6395 13.5433 21.432C13.4128 21.2245 13.2621 21.1355 13.0913 21.165ZM23.1996 36.5913C22.3849 36.7318 21.6835 36.5483 21.0954 36.0409C20.5072 35.5335 20.1305 34.8002 19.965 33.8411C19.7837 32.7899 19.8557 31.756 20.1809 30.7392C20.5039 29.7093 21.0174 28.8428 21.7215 28.1395C22.4364 27.4209 23.2471 26.9834 24.1538 26.827C24.4428 26.7772 24.6435 26.8034 24.7559 26.9058C24.8792 26.9928 24.9986 27.1751 25.1141 27.4529C25.381 27.3527 25.6655 27.2766 25.9677 27.2245C26.6115 27.1134 26.9731 27.2878 27.0524 27.7477C27.1 28.0236 27.1148 28.6976 27.0967 29.7696C27.0552 31.3327 27.0854 32.41 27.1874 33.0012C27.2214 33.1983 27.2945 33.348 27.4069 33.4504C27.5324 33.5506 27.674 33.587 27.8317 33.5598C28.0813 33.5168 28.3563 33.307 28.6567 32.9304C28.9548 32.5408 29.3437 31.9325 29.8235 31.1056C29.9494 30.8944 30.111 30.7718 30.3081 30.7378C30.4789 30.7084 30.6239 30.7646 30.743 30.9064C30.8753 31.0459 30.9653 31.2536 31.0129 31.5296C31.1035 32.0551 31.049 32.484 30.8492 32.8161C30.4261 33.5791 29.9519 34.2427 29.4269 34.8068C28.9018 35.371 28.3567 35.7018 27.7917 35.7992C27.3581 35.874 26.9325 35.7986 26.5147 35.573C26.1078 35.332 25.7682 34.9711 25.4959 34.4904C25.003 35.712 24.2376 36.4122 23.1996 36.5913ZM23.5657 34.4783C23.8548 34.4284 24.1013 34.21 24.3051 33.8231C24.509 33.4361 24.6213 32.95 24.6421 32.3646L24.7458 28.6124C24.1962 28.7207 23.7201 29.0193 23.3173 29.5082C22.9254 29.9817 22.6482 30.5707 22.4856 31.2753C22.323 31.9798 22.3051 32.7 22.432 33.4358C22.5023 33.8431 22.6333 34.1318 22.8249 34.3016C23.0297 34.4693 23.2767 34.5282 23.5657 34.4783ZM36.8602 27.4564C37.1492 27.4065 37.4104 27.4697 37.6438 27.646C37.888 27.8068 38.0362 28.0383 38.0883 28.3405C38.1178 28.5113 38.1101 28.7021 38.0652 28.9128C37.9389 29.4352 37.7135 29.8935 37.3891 30.2877C37.0647 30.6819 36.6726 30.9187 36.2127 30.998C35.8448 31.0614 35.5068 30.9844 35.1987 30.767C34.9037 30.5473 34.7177 30.214 34.6407 29.7673C34.5976 29.5176 34.5643 29.246 34.5407 28.9524C34.5307 28.7377 34.5189 28.5909 34.5053 28.512C34.4872 28.4069 34.4473 28.3326 34.3857 28.2891C34.3372 28.2434 34.2801 28.2261 34.2144 28.2375C34.0305 28.2692 33.8194 28.5356 33.5811 29.0368C33.3405 29.5248 33.1249 30.1573 32.9342 30.9343C32.7435 31.7114 32.6187 32.5177 32.5599 33.3531C32.5241 34.0088 32.4324 34.4576 32.2847 34.6995C32.137 34.9415 31.853 35.0987 31.4325 35.1712C30.9332 35.2573 30.5331 35.0558 30.2322 34.5664C29.9445 34.0749 29.7009 33.2509 29.5015 32.0947C29.2069 30.3866 29.17 28.7219 29.391 27.1008C29.4436 26.6994 29.5865 26.3906 29.8198 26.1744C30.064 25.9429 30.4292 25.7852 30.9153 25.7013C31.1781 25.656 31.3677 25.6571 31.4842 25.7047C31.6006 25.7523 31.6747 25.868 31.7065 26.052C31.7427 26.2622 31.7258 26.7522 31.6556 27.522C31.6148 28.0702 31.589 28.5482 31.5782 28.956C31.5674 29.3638 31.5855 29.8613 31.6327 30.4485C31.8714 29.2437 32.1989 28.2401 32.6152 27.4377C33.0315 26.6352 33.4699 26.0387 33.9302 25.6481C34.3905 25.2575 34.8309 25.026 35.2513 24.9534C35.6324 24.8877 35.9407 24.9495 36.1763 25.1389C36.4228 25.3129 36.5823 25.6101 36.6548 26.0306C36.6979 26.2802 36.7072 26.7657 36.6828 27.487L36.8602 27.4564ZM43.0317 33.6171C42.3484 33.7349 41.7956 33.6679 41.3734 33.416C40.9642 33.1618 40.7256 32.8377 40.6576 32.4435C40.5987 32.1019 40.6725 31.7847 40.8791 31.492C41.0857 31.1993 41.4321 31.011 41.9182 30.9272C42.0891 30.8977 42.2895 30.8834 42.5197 30.8843C42.7607 30.8698 42.9415 30.8589 43.062 30.8516C42.99 30.5123 42.8556 30.204 42.659 29.9267C42.4754 29.6472 42.2548 29.3876 41.997 29.1479C41.7369 28.8951 41.4967 28.6794 41.2765 28.5009C41.0029 29.3464 40.7066 30.0605 40.3877 30.6432C40.0819 31.2236 39.7322 31.7845 39.3385 32.326C39.1428 32.6033 38.9135 32.7646 38.6507 32.81C38.4405 32.8462 38.2572 32.8034 38.1009 32.6815C37.9423 32.5465 37.8437 32.3673 37.8052 32.144C37.7599 31.8812 37.8099 31.6223 37.9554 31.3672L38.1572 31.0076C38.7257 29.9895 39.1441 29.1596 39.4123 28.5181C39.5699 28.0985 39.7455 27.5473 39.9389 26.8645C40.13 26.1685 40.3112 25.454 40.4824 24.7209C40.6324 24.0997 41.1015 23.7211 41.8899 23.5851C42.2578 23.5217 42.5197 23.5103 42.6755 23.5511C42.8314 23.5919 42.9218 23.6845 42.9467 23.8291C42.9603 23.9079 42.9556 24.0373 42.9325 24.2171C42.9094 24.397 42.8666 24.5803 42.8041 24.767C42.6491 25.2808 42.6 25.7019 42.6567 26.0304C42.6907 26.2275 42.7937 26.433 42.9659 26.6468C43.1513 26.8584 43.4191 27.1166 43.7693 27.4215C44.285 27.9008 44.6819 28.3195 44.9601 28.6774C45.2492 29.0199 45.4334 29.4211 45.5127 29.881C45.5354 30.0124 45.554 30.1986 45.5685 30.4396C46.1693 30.0789 46.8103 29.2851 47.4917 28.0581C47.6176 27.8469 47.7791 27.7244 47.9762 27.6904C48.147 27.6609 48.292 27.7171 48.4112 27.8589C48.5435 27.9984 48.6335 28.2062 48.681 28.4821C48.7672 28.9814 48.7126 29.4102 48.5173 29.7686C48.0009 30.6966 47.4665 31.3638 46.9142 31.7702C46.3728 32.1613 45.6642 32.4459 44.7884 32.624C44.3399 33.1614 43.7543 33.4924 43.0317 33.6171ZM53.0778 21.8787C53.4982 21.8061 53.8328 21.8634 54.0816 22.0505C54.3412 22.2222 54.5073 22.5183 54.5798 22.9388C54.6387 23.2804 54.6775 23.9367 54.6962 24.9076C54.703 25.7318 54.7294 26.512 54.7752 27.2483C54.8187 27.9714 54.9164 28.7731 55.0683 29.6535C55.1544 30.1528 55.1116 30.5322 54.9399 30.7918C54.7791 31.0361 54.4687 31.1978 54.0088 31.2772C53.5752 31.352 53.2406 31.2947 53.005 31.1053C52.7694 30.9159 52.6131 30.5979 52.536 30.1511C52.4453 29.6255 52.3877 28.7425 52.3632 27.5019C52.3396 26.4236 52.3028 25.7399 52.2529 25.4508C52.2167 25.2406 52.1263 25.148 51.9818 25.1729C51.8109 25.2023 51.6064 25.4676 51.3681 25.9688C51.1276 26.4568 50.9119 27.0893 50.7212 27.8663C50.5305 28.6434 50.4058 29.4497 50.3469 30.2852C50.3089 30.9276 50.2106 31.3776 50.0521 31.6349C49.9044 31.8769 49.6269 32.033 49.2195 32.1032C48.8122 32.1735 48.4851 32.0811 48.2381 31.826C48.0021 31.5555 47.7979 31.1172 47.6257 30.511C47.4535 29.9048 47.2643 29.0038 47.058 27.8081C46.709 25.7847 46.5489 23.6407 46.5778 21.3762C46.6198 19.1094 46.9134 17.1645 47.4589 15.5415C48.0151 13.9031 48.8583 12.9865 49.9882 12.7916C50.5926 12.6873 51.1241 12.8662 51.5827 13.3284C52.0521 13.7751 52.3582 14.4123 52.501 15.2401C52.7299 16.5672 52.5802 18.0136 52.0521 19.5795C51.5216 21.1323 50.5469 23.012 49.128 25.2186C49.2064 25.9087 49.308 26.615 49.4326 27.3377C49.6736 26.146 49.9968 25.1567 50.4022 24.3697C50.8186 23.5672 51.2569 22.9707 51.7172 22.5801C52.1906 22.1873 52.6442 21.9534 53.0778 21.8787ZM49.9109 14.8141C49.6744 14.8549 49.4705 15.2419 49.2993 15.975C49.1258 16.695 49.0008 17.6569 48.9244 18.8607C48.8587 20.0492 48.8572 21.3348 48.9199 22.7176C49.5691 21.6179 50.059 20.4578 50.3897 19.2371C50.7335 18.0142 50.826 16.9429 50.6674 16.0231C50.5949 15.6027 50.4934 15.2887 50.3629 15.0812C50.2324 14.8737 50.0817 14.7847 49.9109 14.8141Z" fill="#884D9F"/>
<path d="M21.5458 31.3354C21.7166 31.306 21.8616 31.3622 21.9807 31.504C22.113 31.6435 22.203 31.8512 22.2506 32.1272C22.3412 32.6527 22.2867 33.0816 22.0869 33.4137C21.6026 34.2143 21.0771 34.8936 20.5103 35.4513C19.9567 36.0069 19.2725 36.3549 18.4579 36.4954C17.7878 36.611 17.2491 36.5077 16.8417 36.1856C16.4321 35.8503 16.1638 35.3148 16.0369 34.579C15.9735 34.2111 15.9521 33.5383 15.9729 32.5605C16.0009 31.7033 15.9878 31.117 15.9334 30.8016C15.8971 30.5914 15.8067 30.4988 15.6622 30.5237C15.4914 30.5532 15.2868 30.8185 15.0485 31.3196C14.808 31.8076 14.5923 32.4401 14.4016 33.2171C14.211 33.9942 14.0862 34.8005 14.0273 35.636C13.959 36.7302 13.4321 37.3623 12.4467 37.5322C12.0525 37.6002 11.7659 37.5076 11.5869 37.2543C11.4188 36.9857 11.2713 36.4834 11.1444 35.7476C11.0718 35.3272 11.0206 34.991 10.9907 34.7391L10.7384 33.159C10.3894 31.1355 10.2293 28.9915 10.2582 26.727C10.3002 24.4602 10.5939 22.5153 11.1393 20.8923C11.6955 19.2539 12.5387 18.3373 13.6687 18.1424C14.2731 18.0381 14.8045 18.2171 15.2631 18.6792C15.7325 19.1259 16.0386 19.7631 16.1814 20.5909C16.4103 21.918 16.2607 23.3645 15.7325 24.9304C15.202 26.4831 14.2273 28.3628 12.8084 30.5694C12.8868 31.2595 12.9884 31.9658 13.113 32.6885C13.354 31.4969 13.6772 30.5075 14.0827 29.7205C14.499 28.918 14.9373 28.3215 15.3976 27.9309C15.8711 27.5381 16.3246 27.3043 16.7582 27.2295C17.6122 27.0822 18.1129 27.4355 18.2602 28.2896C18.3486 28.802 18.3639 29.7533 18.306 31.1433C18.2535 32.3295 18.259 33.1066 18.3224 33.4745C18.4131 34 18.6489 34.23 19.03 34.1642C19.2928 34.1189 19.5743 33.908 19.8747 33.5314C20.186 33.1395 20.5815 32.5301 21.0612 31.7032C21.1872 31.492 21.3487 31.3694 21.5458 31.3354ZM13.5913 20.165C13.3548 20.2057 13.1509 20.5927 12.9797 21.3258C12.8062 22.0458 12.6813 23.0077 12.6048 24.2115C12.5392 25.4 12.5377 26.6856 12.6003 28.0684C13.2495 26.9687 13.7394 25.8086 14.0701 24.5879C14.4139 23.365 14.5065 22.2937 14.3478 21.374C14.2753 20.9535 14.1738 20.6395 14.0433 20.432C13.9128 20.2245 13.7621 20.1355 13.5913 20.165ZM23.6996 35.5913C22.8849 35.7318 22.1835 35.5483 21.5954 35.0409C21.0072 34.5335 20.6305 33.8002 20.465 32.8411C20.2837 31.7899 20.3557 30.756 20.6809 29.7392C21.0039 28.7093 21.5174 27.8428 22.2215 27.1395C22.9364 26.4209 23.7471 25.9834 24.6538 25.827C24.9428 25.7772 25.1435 25.8034 25.2559 25.9058C25.3792 25.9928 25.4986 26.1751 25.6141 26.4529C25.881 26.3527 26.1655 26.2766 26.4677 26.2245C27.1115 26.1134 27.4731 26.2878 27.5524 26.7477C27.6 27.0236 27.6148 27.6976 27.5967 28.7696C27.5552 30.3327 27.5854 31.41 27.6874 32.0012C27.7214 32.1983 27.7945 32.348 27.9069 32.4504C28.0324 32.5506 28.174 32.587 28.3317 32.5598C28.5813 32.5168 28.8563 32.307 29.1567 31.9304C29.4548 31.5408 29.8437 30.9325 30.3235 30.1056C30.4494 29.8944 30.611 29.7718 30.8081 29.7378C30.9789 29.7084 31.1239 29.7646 31.243 29.9064C31.3753 30.0459 31.4653 30.2536 31.5129 30.5296C31.6035 31.0551 31.549 31.484 31.3492 31.8161C30.9261 32.5791 30.4519 33.2427 29.9269 33.8068C29.4018 34.371 28.8567 34.7018 28.2917 34.7992C27.8581 34.874 27.4325 34.7986 27.0147 34.573C26.6078 34.332 26.2682 33.9711 25.9959 33.4904C25.503 34.712 24.7376 35.4122 23.6996 35.5913ZM24.0657 33.4783C24.3548 33.4284 24.6013 33.21 24.8051 32.8231C25.009 32.4361 25.1213 31.95 25.1421 31.3646L25.2458 27.6124C24.6962 27.7207 24.2201 28.0193 23.8173 28.5082C23.4254 28.9817 23.1482 29.5707 22.9856 30.2753C22.823 30.9798 22.8051 31.7 22.932 32.4358C23.0023 32.8431 23.1333 33.1318 23.3249 33.3016C23.5297 33.4693 23.7767 33.5282 24.0657 33.4783ZM37.3602 26.4564C37.6492 26.4065 37.9104 26.4697 38.1438 26.646C38.388 26.8068 38.5362 27.0383 38.5883 27.3405C38.6178 27.5113 38.6101 27.7021 38.5652 27.9128C38.4389 28.4352 38.2135 28.8935 37.8891 29.2877C37.5647 29.6819 37.1726 29.9187 36.7127 29.998C36.3448 30.0614 36.0068 29.9844 35.6987 29.767C35.4037 29.5473 35.2177 29.214 35.1407 28.7673C35.0976 28.5176 35.0643 28.246 35.0407 27.9524C35.0307 27.7377 35.0189 27.5909 35.0053 27.512C34.9872 27.4069 34.9473 27.3326 34.8857 27.2891C34.8372 27.2434 34.7801 27.2261 34.7144 27.2375C34.5305 27.2692 34.3194 27.5356 34.0811 28.0368C33.8405 28.5248 33.6249 29.1573 33.4342 29.9343C33.2435 30.7114 33.1187 31.5177 33.0599 32.3531C33.0241 33.0088 32.9324 33.4576 32.7847 33.6995C32.637 33.9415 32.353 34.0987 31.9325 34.1712C31.4332 34.2573 31.0331 34.0558 30.7322 33.5664C30.4445 33.0749 30.2009 32.2509 30.0015 31.0947C29.7069 29.3866 29.67 27.7219 29.891 26.1008C29.9436 25.6994 30.0865 25.3906 30.3198 25.1744C30.564 24.9429 30.9292 24.7852 31.4153 24.7013C31.6781 24.656 31.8677 24.6571 31.9842 24.7047C32.1006 24.7523 32.1747 24.868 32.2065 25.052C32.2427 25.2622 32.2258 25.7522 32.1556 26.522C32.1148 27.0702 32.089 27.5482 32.0782 27.956C32.0674 28.3638 32.0855 28.8613 32.1327 29.4485C32.3714 28.2437 32.6989 27.2401 33.1152 26.4377C33.5315 25.6352 33.9699 25.0387 34.4302 24.6481C34.8905 24.2575 35.3309 24.026 35.7513 23.9534C36.1324 23.8877 36.4407 23.9495 36.6763 24.1389C36.9228 24.3129 37.0823 24.6101 37.1548 25.0306C37.1979 25.2802 37.2072 25.7657 37.1828 26.487L37.3602 26.4564ZM43.5317 32.6171C42.8484 32.7349 42.2956 32.6679 41.8734 32.416C41.4642 32.1618 41.2256 31.8377 41.1576 31.4435C41.0987 31.1019 41.1725 30.7847 41.3791 30.492C41.5857 30.1993 41.9321 30.011 42.4182 29.9272C42.5891 29.8977 42.7895 29.8834 43.0197 29.8843C43.2607 29.8698 43.4415 29.8589 43.562 29.8516C43.49 29.5123 43.3556 29.204 43.159 28.9267C42.9754 28.6472 42.7548 28.3876 42.497 28.1479C42.2369 27.8951 41.9967 27.6794 41.7765 27.5009C41.5029 28.3464 41.2066 29.0605 40.8877 29.6432C40.5819 30.2236 40.2322 30.7845 39.8385 31.326C39.6428 31.6033 39.4135 31.7646 39.1507 31.81C38.9405 31.8462 38.7572 31.8034 38.6009 31.6815C38.4423 31.5465 38.3437 31.3673 38.3052 31.144C38.2599 30.8812 38.3099 30.6223 38.4554 30.3672L38.6572 30.0076C39.2257 28.9895 39.6441 28.1596 39.9123 27.5181C40.0699 27.0985 40.2455 26.5473 40.4389 25.8645C40.63 25.1685 40.8112 24.454 40.9824 23.7209C41.1324 23.0997 41.6015 22.7211 42.3899 22.5851C42.7578 22.5217 43.0197 22.5103 43.1755 22.5511C43.3314 22.5919 43.4218 22.6845 43.4467 22.8291C43.4603 22.9079 43.4556 23.0373 43.4325 23.2171C43.4094 23.397 43.3666 23.5803 43.3041 23.767C43.1491 24.2808 43.1 24.7019 43.1567 25.0304C43.1907 25.2275 43.2937 25.433 43.4659 25.6468C43.6513 25.8584 43.9191 26.1166 44.2693 26.4215C44.785 26.9008 45.1819 27.3195 45.4601 27.6774C45.7492 28.0199 45.9334 28.4211 46.0127 28.881C46.0354 29.0124 46.054 29.1986 46.0685 29.4396C46.6693 29.0789 47.3103 28.2851 47.9917 27.0581C48.1176 26.8469 48.2791 26.7244 48.4762 26.6904C48.647 26.6609 48.792 26.7171 48.9112 26.8589C49.0435 26.9984 49.1335 27.2062 49.181 27.4821C49.2672 27.9814 49.2126 28.4102 49.0173 28.7686C48.5009 29.6966 47.9665 30.3638 47.4142 30.7702C46.8728 31.1613 46.1642 31.4459 45.2884 31.624C44.8399 32.1614 44.2543 32.4924 43.5317 32.6171ZM53.5778 20.8787C53.9982 20.8061 54.3328 20.8634 54.5816 21.0505C54.8412 21.2222 55.0073 21.5183 55.0798 21.9388C55.1387 22.2804 55.1775 22.9367 55.1962 23.9076C55.203 24.7318 55.2294 25.512 55.2752 26.2483C55.3187 26.9714 55.4164 27.7731 55.5683 28.6535C55.6544 29.1528 55.6116 29.5322 55.4399 29.7918C55.2791 30.0361 54.9687 30.1978 54.5088 30.2772C54.0752 30.352 53.7406 30.2947 53.505 30.1053C53.2694 29.9159 53.1131 29.5979 53.036 29.1511C52.9453 28.6255 52.8877 27.7425 52.8632 26.5019C52.8396 25.4236 52.8028 24.7399 52.7529 24.4508C52.7167 24.2406 52.6263 24.148 52.4818 24.1729C52.3109 24.2023 52.1064 24.4676 51.8681 24.9688C51.6276 25.4568 51.4119 26.0893 51.2212 26.8663C51.0305 27.6434 50.9058 28.4497 50.8469 29.2852C50.8089 29.9276 50.7106 30.3776 50.5521 30.6349C50.4044 30.8769 50.1269 31.033 49.7195 31.1032C49.3122 31.1735 48.9851 31.0811 48.7381 30.826C48.5021 30.5555 48.2979 30.1172 48.1257 29.511C47.9535 28.9048 47.7643 28.0038 47.558 26.8081C47.209 24.7847 47.0489 22.6407 47.0778 20.3762C47.1198 18.1094 47.4134 16.1645 47.9589 14.5415C48.5151 12.9031 49.3583 11.9865 50.4882 11.7916C51.0926 11.6873 51.6241 11.8662 52.0827 12.3284C52.5521 12.7751 52.8582 13.4123 53.001 14.2401C53.2299 15.5672 53.0802 17.0136 52.5521 18.5795C52.0216 20.1323 51.0469 22.012 49.628 24.2186C49.7064 24.9087 49.808 25.615 49.9326 26.3377C50.1736 25.146 50.4968 24.1567 50.9022 23.3697C51.3186 22.5672 51.7569 21.9707 52.2172 21.5801C52.6906 21.1873 53.1442 20.9534 53.5778 20.8787ZM50.4109 13.8141C50.1744 13.8549 49.9705 14.2419 49.7993 14.975C49.6258 15.695 49.5008 16.6569 49.4244 17.8607C49.3587 19.0492 49.3572 20.3348 49.4199 21.7176C50.0691 20.6179 50.559 19.4578 50.8897 18.2371C51.2335 17.0142 51.326 15.9429 51.1674 15.0231C51.0949 14.6027 50.9934 14.2887 50.8629 14.0812C50.7324 13.8737 50.5817 13.7847 50.4109 13.8141Z" fill="white"/>
<path d="M23.2993 54.2127C22.9708 54.2693 22.6648 54.2207 22.3811 54.0666C22.0975 53.9126 21.9194 53.6254 21.8469 53.2049L21.8292 52.9847C21.7403 51.6064 21.6686 50.1711 21.6141 48.6786C21.5705 47.1707 21.553 46.0102 21.5615 45.1969L20.099 45.8956L19.8693 45.9758C19.6197 46.0189 19.4056 45.9543 19.2271 45.7822C19.0485 45.61 18.9377 45.3991 18.8947 45.1495L18.8838 44.9687C18.867 44.7145 18.9107 44.4973 19.0149 44.3169C19.1191 44.1366 19.3416 43.9359 19.6823 43.7147C20.0361 43.4913 20.5716 43.2231 21.2889 42.9099L22.0826 42.5701C22.3735 42.4522 22.6175 42.3763 22.8146 42.3423C23.1956 42.2766 23.4951 42.3264 23.7131 42.4918C23.9441 42.6549 24.0903 42.9138 24.1515 43.2686C24.1787 43.4263 24.1884 43.6005 24.1807 43.7912C24.1473 44.8523 24.2497 47.8384 24.4879 52.7494C24.5233 53.5821 24.1271 54.0699 23.2993 54.2127ZM37.4272 47.7574C37.598 47.7279 37.743 47.7841 37.8621 47.9259C37.9945 48.0654 38.0844 48.2732 38.132 48.5491C38.2136 49.0221 38.1722 49.4487 38.0077 49.8288C37.4387 51.1582 36.4381 51.9464 35.006 52.1935C34.3884 52.3 33.8162 52.2769 33.2892 52.1243C32.7731 51.9562 32.3243 51.6683 31.9428 51.2605C31.3416 52.3249 30.5352 52.9443 29.5235 53.1188C28.8008 53.2435 28.193 53.1318 27.7 52.7839C27.207 52.436 26.9005 51.9138 26.7804 51.2174C26.667 50.5604 26.7264 50.0022 26.9583 49.5428C27.1903 49.0833 27.5822 48.806 28.134 48.7108C28.607 48.6293 28.8741 48.7658 28.9353 49.1206C28.9534 49.2257 28.972 49.4119 28.9911 49.6793L29.0611 50.4384C29.1291 50.8326 29.3339 51.0002 29.6756 50.9413C29.9252 50.8982 30.1368 50.7129 30.3103 50.3853C30.4947 50.0423 30.6149 49.6021 30.6711 49.0648C30.7404 48.5251 30.7218 47.9465 30.6152 47.329C30.5336 46.856 30.4065 46.472 30.2339 46.1771C30.059 45.869 29.8861 45.7297 29.7153 45.7591C29.5708 45.784 29.4724 45.8416 29.4204 45.9318C29.366 46.0088 29.3207 46.1384 29.2845 46.3205C29.2419 46.5443 29.1662 46.7333 29.0575 46.8873C28.9465 47.0283 28.7268 47.127 28.3983 47.1837C28.1092 47.2336 27.8623 47.1747 27.6575 47.0071C27.4504 46.8263 27.3106 46.5257 27.2381 46.1052C27.1225 45.4351 27.2355 44.8744 27.5771 44.4231C27.9187 43.9718 28.4114 43.6906 29.0552 43.5796C29.6071 43.4844 30.1302 43.5363 30.6245 43.7351C31.1166 43.9209 31.525 44.2495 31.8499 44.7212C32.1535 44.1276 32.5256 43.6575 32.9665 43.3109C33.4204 42.962 33.8839 42.7467 34.3569 42.6651C34.8694 42.5767 35.2774 42.6281 35.581 42.8193C35.8977 43.0082 36.1014 43.3655 36.192 43.8911C36.294 44.4823 36.2628 44.968 36.0983 45.3482C35.9316 45.7152 35.6906 45.9259 35.3753 45.9803C35.0862 46.0301 34.8789 46.005 34.7534 45.9049C34.6279 45.8048 34.5196 45.6476 34.4285 45.4333C34.375 45.2801 34.3152 45.1687 34.249 45.0989C34.1829 45.0291 34.0841 45.0056 33.9527 45.0282C33.7951 45.0554 33.6503 45.236 33.5185 45.5699C33.3975 45.8884 33.3133 46.3021 33.2657 46.8109C33.2313 47.3175 33.2595 47.8335 33.3501 48.3591C33.4521 48.9504 33.6651 49.4007 33.9891 49.7102C34.3262 50.0173 34.6853 50.1381 35.0663 50.0723C35.789 49.9477 36.4155 49.3052 36.946 48.1448C37.0434 47.925 37.2038 47.7959 37.4272 47.7574ZM47.3321 45.3995C48.0285 45.2794 48.4277 45.5149 48.5296 46.1062C48.6112 46.5792 48.5365 46.9304 48.3054 47.1596C48.0744 47.3889 47.6763 47.5523 47.1114 47.6497L46.6975 47.7211L46.7988 48.7793C46.8636 49.3905 46.8025 49.8205 46.6154 50.0692C46.4414 50.3157 46.1114 50.4809 45.6252 50.5648C44.9288 50.6849 44.507 50.3179 44.3597 49.4639C44.3347 49.3193 44.322 49.2065 44.3216 49.1254L44.2536 48.1427C42.3484 48.4713 40.9019 48.714 39.9142 48.8708C39.6251 48.9207 39.3462 48.8335 39.0775 48.6092C38.8089 48.385 38.6382 48.0626 38.5657 47.6422C38.5227 47.3925 38.5233 47.1218 38.5677 46.83C38.8557 45.0485 39.3932 42.9871 40.18 40.646C40.3504 40.143 40.5445 39.7781 40.7624 39.5511C40.9912 39.3086 41.3749 39.141 41.9137 39.048C42.2027 38.9982 42.4308 39.0265 42.598 39.133C42.7784 39.2372 42.8867 39.3944 42.9229 39.6046C42.9615 39.828 42.9343 40.0627 42.8414 40.3087C41.9595 42.8827 41.3803 44.9377 41.104 46.4737L44.1392 45.9502C44.0861 44.701 44.1024 43.5008 44.1879 42.3495C44.2228 41.9241 44.3403 41.5858 44.5406 41.3348C44.7386 41.0707 45.0478 40.9023 45.4682 40.8298C46.1383 40.7142 46.5232 40.9455 46.623 41.5236C46.6524 41.6944 46.662 41.8281 46.6515 41.9246C46.6077 43.0822 46.598 44.2813 46.6226 45.5219L47.3321 45.3995Z" fill="#4F325A"/>
<path d="M23.7993 53.2127C23.4708 53.2693 23.1648 53.2207 22.8811 53.0666C22.5975 52.9126 22.4194 52.6254 22.3469 52.2049L22.3292 51.9847C22.2403 50.6064 22.1686 49.1711 22.1141 47.6786C22.0705 46.1707 22.053 45.0102 22.0615 44.1969L20.599 44.8956L20.3693 44.9758C20.1197 45.0189 19.9056 44.9543 19.7271 44.7822C19.5485 44.61 19.4377 44.3991 19.3947 44.1495L19.3838 43.9687C19.367 43.7145 19.4107 43.4973 19.5149 43.3169C19.6191 43.1366 19.8416 42.9359 20.1823 42.7147C20.5361 42.4913 21.0716 42.2231 21.7889 41.9099L22.5826 41.5701C22.8735 41.4522 23.1175 41.3763 23.3146 41.3423C23.6956 41.2766 23.9951 41.3264 24.2131 41.4918C24.4441 41.6549 24.5903 41.9138 24.6515 42.2686C24.6787 42.4263 24.6884 42.6005 24.6807 42.7912C24.6473 43.8523 24.7497 46.8384 24.9879 51.7494C25.0233 52.5821 24.6271 53.0699 23.7993 53.2127ZM37.9272 46.7574C38.098 46.7279 38.243 46.7841 38.3621 46.9259C38.4945 47.0654 38.5844 47.2732 38.632 47.5491C38.7136 48.0221 38.6722 48.4487 38.5077 48.8288C37.9387 50.1582 36.9381 50.9464 35.506 51.1935C34.8884 51.3 34.3162 51.2769 33.7892 51.1243C33.2731 50.9562 32.8243 50.6683 32.4428 50.2605C31.8416 51.3249 31.0352 51.9443 30.0235 52.1188C29.3008 52.2435 28.693 52.1318 28.2 51.7839C27.707 51.436 27.4005 50.9138 27.2804 50.2174C27.167 49.5604 27.2264 49.0022 27.4583 48.5428C27.6903 48.0833 28.0822 47.806 28.634 47.7108C29.107 47.6293 29.3741 47.7658 29.4353 48.1206C29.4534 48.2257 29.472 48.4119 29.4911 48.6793L29.5611 49.4384C29.6291 49.8326 29.8339 50.0002 30.1756 49.9413C30.4252 49.8982 30.6368 49.7129 30.8103 49.3853C30.9947 49.0423 31.1149 48.6021 31.1711 48.0648C31.2404 47.5251 31.2218 46.9465 31.1152 46.329C31.0336 45.856 30.9065 45.472 30.7339 45.1771C30.559 44.869 30.3861 44.7297 30.2153 44.7591C30.0708 44.784 29.9724 44.8416 29.9204 44.9318C29.866 45.0088 29.8207 45.1384 29.7845 45.3205C29.7419 45.5443 29.6662 45.7333 29.5575 45.8873C29.4465 46.0283 29.2268 46.127 28.8983 46.1837C28.6092 46.2336 28.3623 46.1747 28.1575 46.0071C27.9504 45.8263 27.8106 45.5257 27.7381 45.1052C27.6225 44.4351 27.7355 43.8744 28.0771 43.4231C28.4187 42.9718 28.9114 42.6906 29.5552 42.5796C30.1071 42.4844 30.6302 42.5363 31.1245 42.7351C31.6166 42.9209 32.025 43.2495 32.3499 43.7212C32.6535 43.1276 33.0256 42.6575 33.4665 42.3109C33.9204 41.962 34.3839 41.7467 34.8569 41.6651C35.3694 41.5767 35.7774 41.6281 36.081 41.8193C36.3977 42.0082 36.6014 42.3655 36.692 42.8911C36.794 43.4823 36.7628 43.968 36.5983 44.3482C36.4316 44.7152 36.1906 44.9259 35.8753 44.9803C35.5862 45.0301 35.3789 45.005 35.2534 44.9049C35.1279 44.8048 35.0196 44.6476 34.9285 44.4333C34.875 44.2801 34.8152 44.1687 34.749 44.0989C34.6829 44.0291 34.5841 44.0056 34.4527 44.0282C34.2951 44.0554 34.1503 44.236 34.0185 44.5699C33.8975 44.8884 33.8133 45.3021 33.7657 45.8109C33.7313 46.3175 33.7595 46.8335 33.8501 47.3591C33.9521 47.9504 34.1651 48.4007 34.4891 48.7102C34.8262 49.0173 35.1853 49.1381 35.5663 49.0723C36.289 48.9477 36.9155 48.3052 37.446 47.1448C37.5434 46.925 37.7038 46.7959 37.9272 46.7574ZM47.8321 44.3995C48.5285 44.2794 48.9277 44.5149 49.0296 45.1062C49.1112 45.5792 49.0365 45.9304 48.8054 46.1596C48.5744 46.3889 48.1763 46.5523 47.6114 46.6497L47.1975 46.7211L47.2988 47.7793C47.3636 48.3905 47.3025 48.8205 47.1154 49.0692C46.9414 49.3157 46.6114 49.4809 46.1252 49.5648C45.4288 49.6849 45.007 49.3179 44.8597 48.4639C44.8347 48.3193 44.822 48.2065 44.8216 48.1254L44.7536 47.1427C42.8484 47.4713 41.4019 47.714 40.4142 47.8708C40.1251 47.9207 39.8462 47.8335 39.5775 47.6092C39.3089 47.385 39.1382 47.0626 39.0657 46.6422C39.0227 46.3925 39.0233 46.1218 39.0677 45.83C39.3557 44.0485 39.8932 41.9871 40.68 39.646C40.8504 39.143 41.0445 38.7781 41.2624 38.5511C41.4912 38.3086 41.8749 38.141 42.4137 38.048C42.7027 37.9982 42.9308 38.0265 43.098 38.133C43.2784 38.2372 43.3867 38.3944 43.4229 38.6046C43.4615 38.828 43.4343 39.0627 43.3414 39.3087C42.4595 41.8827 41.8803 43.9377 41.604 45.4737L44.6392 44.9502C44.5861 43.701 44.6024 42.5008 44.6879 41.3495C44.7228 40.9241 44.8403 40.5858 45.0406 40.3348C45.2386 40.0707 45.5478 39.9023 45.9682 39.8298C46.6383 39.7142 47.0232 39.9455 47.123 40.5236C47.1524 40.6944 47.162 40.8281 47.1515 40.9246C47.1077 42.0822 47.098 43.2813 47.1226 44.5219L47.8321 44.3995Z" fill="#884D9F"/>
<path d="M24.2993 52.2127C23.9708 52.2693 23.6648 52.2207 23.3811 52.0666C23.0975 51.9126 22.9194 51.6254 22.8469 51.2049L22.8292 50.9847C22.7403 49.6064 22.6686 48.1711 22.6141 46.6786C22.5705 45.1707 22.553 44.0102 22.5615 43.1969L21.099 43.8956L20.8693 43.9758C20.6197 44.0189 20.4056 43.9543 20.2271 43.7822C20.0485 43.61 19.9377 43.3991 19.8947 43.1495L19.8838 42.9687C19.867 42.7145 19.9107 42.4973 20.0149 42.3169C20.1191 42.1366 20.3416 41.9359 20.6823 41.7147C21.0361 41.4913 21.5716 41.2231 22.2889 40.9099L23.0826 40.5701C23.3735 40.4522 23.6175 40.3763 23.8146 40.3423C24.1956 40.2766 24.4951 40.3264 24.7131 40.4918C24.9441 40.6549 25.0903 40.9138 25.1515 41.2686C25.1787 41.4263 25.1884 41.6005 25.1807 41.7912C25.1473 42.8523 25.2497 45.8384 25.4879 50.7494C25.5233 51.5821 25.1271 52.0699 24.2993 52.2127ZM38.4272 45.7574C38.598 45.7279 38.743 45.7841 38.8621 45.9259C38.9945 46.0654 39.0844 46.2732 39.132 46.5491C39.2136 47.0221 39.1722 47.4487 39.0077 47.8288C38.4387 49.1582 37.4381 49.9464 36.006 50.1935C35.3884 50.3 34.8162 50.2769 34.2892 50.1243C33.7731 49.9562 33.3243 49.6683 32.9428 49.2605C32.3416 50.3249 31.5352 50.9443 30.5235 51.1188C29.8008 51.2435 29.193 51.1318 28.7 50.7839C28.207 50.436 27.9005 49.9138 27.7804 49.2174C27.667 48.5604 27.7264 48.0022 27.9583 47.5428C28.1903 47.0833 28.5822 46.806 29.134 46.7108C29.607 46.6293 29.8741 46.7658 29.9353 47.1206C29.9534 47.2257 29.972 47.4119 29.9911 47.6793L30.0611 48.4384C30.1291 48.8326 30.3339 49.0002 30.6756 48.9413C30.9252 48.8982 31.1368 48.7129 31.3103 48.3853C31.4947 48.0423 31.6149 47.6021 31.6711 47.0648C31.7404 46.5251 31.7218 45.9465 31.6152 45.329C31.5336 44.856 31.4065 44.472 31.2339 44.1771C31.059 43.869 30.8861 43.7297 30.7153 43.7591C30.5708 43.784 30.4724 43.8416 30.4204 43.9318C30.366 44.0088 30.3207 44.1384 30.2845 44.3205C30.2419 44.5443 30.1662 44.7333 30.0575 44.8873C29.9465 45.0283 29.7268 45.127 29.3983 45.1837C29.1092 45.2336 28.8623 45.1747 28.6575 45.0071C28.4504 44.8263 28.3106 44.5257 28.2381 44.1052C28.1225 43.4351 28.2355 42.8744 28.5771 42.4231C28.9187 41.9718 29.4114 41.6906 30.0552 41.5796C30.6071 41.4844 31.1302 41.5363 31.6245 41.7351C32.1166 41.9209 32.525 42.2495 32.8499 42.7212C33.1535 42.1276 33.5256 41.6575 33.9665 41.3109C34.4204 40.962 34.8839 40.7467 35.3569 40.6651C35.8694 40.5767 36.2774 40.6281 36.581 40.8193C36.8977 41.0082 37.1014 41.3655 37.192 41.8911C37.294 42.4823 37.2628 42.968 37.0983 43.3482C36.9316 43.7152 36.6906 43.9259 36.3753 43.9803C36.0862 44.0301 35.8789 44.005 35.7534 43.9049C35.6279 43.8048 35.5196 43.6476 35.4285 43.4333C35.375 43.2801 35.3152 43.1687 35.249 43.0989C35.1829 43.0291 35.0841 43.0056 34.9527 43.0282C34.7951 43.0554 34.6503 43.236 34.5185 43.5699C34.3975 43.8884 34.3133 44.3021 34.2657 44.8109C34.2313 45.3175 34.2595 45.8335 34.3501 46.3591C34.4521 46.9504 34.6651 47.4007 34.9891 47.7102C35.3262 48.0173 35.6853 48.1381 36.0663 48.0723C36.789 47.9477 37.4155 47.3052 37.946 46.1448C38.0434 45.925 38.2038 45.7959 38.4272 45.7574ZM48.3321 43.3995C49.0285 43.2794 49.4277 43.5149 49.5296 44.1062C49.6112 44.5792 49.5365 44.9304 49.3054 45.1596C49.0744 45.3889 48.6763 45.5523 48.1114 45.6497L47.6975 45.7211L47.7988 46.7793C47.8636 47.3905 47.8025 47.8205 47.6154 48.0692C47.4414 48.3157 47.1114 48.4809 46.6252 48.5648C45.9288 48.6849 45.507 48.3179 45.3597 47.4639C45.3347 47.3193 45.322 47.2065 45.3216 47.1254L45.2536 46.1427C43.3484 46.4713 41.9019 46.714 40.9142 46.8708C40.6251 46.9207 40.3462 46.8335 40.0775 46.6092C39.8089 46.385 39.6382 46.0626 39.5657 45.6422C39.5227 45.3925 39.5233 45.1218 39.5677 44.83C39.8557 43.0485 40.3932 40.9871 41.18 38.646C41.3504 38.143 41.5445 37.7781 41.7624 37.5511C41.9912 37.3086 42.3749 37.141 42.9137 37.048C43.2027 36.9982 43.4308 37.0265 43.598 37.133C43.7784 37.2372 43.8867 37.3944 43.9229 37.6046C43.9615 37.828 43.9343 38.0627 43.8414 38.3087C42.9595 40.8827 42.3803 42.9377 42.104 44.4737L45.1392 43.9502C45.0861 42.701 45.1024 41.5008 45.1879 40.3495C45.2228 39.9241 45.3403 39.5858 45.5406 39.3348C45.7386 39.0707 46.0478 38.9023 46.4682 38.8298C47.1383 38.7142 47.5232 38.9455 47.623 39.5236C47.6524 39.6944 47.662 39.8281 47.6515 39.9246C47.6077 41.0822 47.598 42.2813 47.6226 43.5219L48.3321 43.3995Z" fill="white"/>
</svg>
