<svg width="55" height="55" viewBox="0 0 55 55" fill="none" xmlns="http://www.w3.org/2000/svg">
<path d="M16.5458 29.3354C16.7166 29.306 16.8616 29.3622 16.9807 29.504C17.113 29.6435 17.203 29.8512 17.2506 30.1272C17.3412 30.6527 17.2867 31.0816 17.0869 31.4137C16.6026 32.2143 16.0771 32.8936 15.5103 33.4513C14.9567 34.0069 14.2725 34.3549 13.4579 34.4954C12.7878 34.611 12.2491 34.5077 11.8417 34.1856C11.4321 33.8503 11.1638 33.3148 11.0369 32.579C10.9735 32.2111 10.9521 31.5383 10.9729 30.5605C11.0009 29.7033 10.9878 29.117 10.9334 28.8016C10.8971 28.5914 10.8067 28.4988 10.6622 28.5237C10.4914 28.5532 10.2868 28.8185 10.0485 29.3196C9.80797 29.8076 9.59234 30.4401 9.40165 31.2171C9.21095 31.9942 9.08618 32.8005 9.02734 33.636C8.959 34.7302 8.4321 35.3623 7.44665 35.5322C7.05247 35.6002 6.76589 35.5076 6.58691 35.2543C6.41879 34.9857 6.27128 34.4834 6.14436 33.7476C6.07184 33.3272 6.02062 32.991 5.9907 32.7391L5.73845 31.159C5.38943 29.1355 5.22935 26.9915 5.25819 24.727C5.30017 22.4602 5.59386 20.5153 6.13927 18.8923C6.69554 17.2539 7.53867 16.3373 8.66865 16.1424C9.27306 16.0381 9.80454 16.2171 10.2631 16.6792C10.7325 17.1259 11.0386 17.7631 11.1814 18.5909C11.4103 19.918 11.2607 21.3645 10.7325 22.9304C10.202 24.4831 9.22733 26.3628 7.80842 28.5694C7.88685 29.2595 7.98839 29.9658 8.11304 30.6885C8.35399 29.4969 8.6772 28.5075 9.08266 27.7205C9.49899 26.918 9.93731 26.3215 10.3976 25.9309C10.8711 25.5381 11.3246 25.3043 11.7582 25.2295C12.6122 25.0822 13.1129 25.4355 13.2602 26.2896C13.3486 26.802 13.3639 27.7533 13.306 29.1433C13.2535 30.3295 13.259 31.1066 13.3224 31.4745C13.4131 32 13.6489 32.23 14.03 32.1642C14.2928 32.1189 14.5743 31.908 14.8747 31.5314C15.186 31.1395 15.5815 30.5301 16.0612 29.7032C16.1872 29.492 16.3487 29.3694 16.5458 29.3354ZM8.59131 18.165C8.3548 18.2057 8.15094 18.5927 7.97973 19.3258C7.80624 20.0458 7.68126 21.0077 7.60477 22.2115C7.53915 23.4 7.53766 24.6856 7.60028 26.0684C8.24947 24.9687 8.73941 23.8086 9.07007 22.5879C9.41388 21.365 9.50646 20.2937 9.34782 19.374C9.2753 18.9535 9.17379 18.6395 9.04328 18.432C8.91278 18.2245 8.76212 18.1355 8.59131 18.165ZM18.6996 33.5913C17.8849 33.7318 17.1835 33.5483 16.5954 33.0409C16.0072 32.5335 15.6305 31.8002 15.465 30.8411C15.2837 29.7899 15.3557 28.756 15.6809 27.7392C16.0039 26.7093 16.5174 25.8428 17.2215 25.1395C17.9364 24.4209 18.7471 23.9834 19.6538 23.827C19.9428 23.7772 20.1435 23.8034 20.2559 23.9058C20.3792 23.9928 20.4986 24.1751 20.6141 24.4529C20.881 24.3527 21.1655 24.2766 21.4677 24.2245C22.1115 24.1134 22.4731 24.2878 22.5524 24.7477C22.6 25.0236 22.6148 25.6976 22.5967 26.7696C22.5552 28.3327 22.5854 29.41 22.6874 30.0012C22.7214 30.1983 22.7945 30.348 22.9069 30.4504C23.0324 30.5506 23.174 30.587 23.3317 30.5598C23.5813 30.5168 23.8563 30.307 24.1567 29.9304C24.4548 29.5408 24.8437 28.9325 25.3235 28.1056C25.4494 27.8944 25.611 27.7718 25.8081 27.7378C25.9789 27.7084 26.1239 27.7646 26.243 27.9064C26.3753 28.0459 26.4653 28.2536 26.5129 28.5296C26.6035 29.0551 26.549 29.484 26.3492 29.8161C25.9261 30.5791 25.4519 31.2427 24.9269 31.8068C24.4018 32.371 23.8567 32.7018 23.2917 32.7992C22.8581 32.874 22.4325 32.7986 22.0147 32.573C21.6078 32.332 21.2682 31.9711 20.9959 31.4904C20.503 32.712 19.7376 33.4122 18.6996 33.5913ZM19.0657 31.4783C19.3548 31.4284 19.6013 31.21 19.8051 30.8231C20.009 30.4361 20.1213 29.95 20.1421 29.3646L20.2458 25.6124C19.6962 25.7207 19.2201 26.0193 18.8173 26.5082C18.4254 26.9817 18.1482 27.5707 17.9856 28.2753C17.823 28.9798 17.8051 29.7 17.932 30.4358C18.0023 30.8431 18.1333 31.1318 18.3249 31.3016C18.5297 31.4693 18.7767 31.5282 19.0657 31.4783ZM32.3602 24.4564C32.6492 24.4065 32.9104 24.4697 33.1438 24.646C33.388 24.8068 33.5362 25.0383 33.5883 25.3405C33.6178 25.5113 33.6101 25.7021 33.5652 25.9128C33.4389 26.4352 33.2135 26.8935 32.8891 27.2877C32.5647 27.6819 32.1726 27.9187 31.7127 27.998C31.3448 28.0614 31.0068 27.9844 30.6987 27.767C30.4037 27.5473 30.2177 27.214 30.1407 26.7673C30.0976 26.5176 30.0643 26.246 30.0407 25.9524C30.0307 25.7377 30.0189 25.5909 30.0053 25.512C29.9872 25.4069 29.9473 25.3326 29.8857 25.2891C29.8372 25.2434 29.7801 25.2261 29.7144 25.2375C29.5305 25.2692 29.3194 25.5356 29.0811 26.0368C28.8405 26.5248 28.6249 27.1573 28.4342 27.9343C28.2435 28.7114 28.1187 29.5177 28.0599 30.3531C28.0241 31.0088 27.9324 31.4576 27.7847 31.6995C27.637 31.9415 27.353 32.0987 26.9325 32.1712C26.4332 32.2573 26.0331 32.0558 25.7322 31.5664C25.4445 31.0749 25.2009 30.2509 25.0015 29.0947C24.7069 27.3866 24.67 25.7219 24.891 24.1008C24.9436 23.6994 25.0865 23.3906 25.3198 23.1744C25.564 22.9429 25.9292 22.7852 26.4153 22.7013C26.6781 22.656 26.8677 22.6571 26.9842 22.7047C27.1006 22.7523 27.1747 22.868 27.2065 23.052C27.2427 23.2622 27.2258 23.7522 27.1556 24.522C27.1148 25.0702 27.089 25.5482 27.0782 25.956C27.0674 26.3638 27.0855 26.8613 27.1327 27.4485C27.3714 26.2437 27.6989 25.2401 28.1152 24.4377C28.5315 23.6352 28.9699 23.0387 29.4302 22.6481C29.8905 22.2575 30.3309 22.026 30.7513 21.9534C31.1324 21.8877 31.4407 21.9495 31.6763 22.1389C31.9228 22.3129 32.0823 22.6101 32.1548 23.0306C32.1979 23.2802 32.2072 23.7657 32.1828 24.487L32.3602 24.4564ZM38.5317 30.6171C37.8484 30.7349 37.2956 30.6679 36.8734 30.416C36.4642 30.1618 36.2256 29.8377 36.1576 29.4435C36.0987 29.1019 36.1725 28.7847 36.3791 28.492C36.5857 28.1993 36.9321 28.011 37.4182 27.9272C37.5891 27.8977 37.7895 27.8834 38.0197 27.8843C38.2607 27.8698 38.4415 27.8589 38.562 27.8516C38.49 27.5123 38.3556 27.204 38.159 26.9267C37.9754 26.6472 37.7548 26.3876 37.497 26.1479C37.2369 25.8951 36.9967 25.6794 36.7765 25.5009C36.5029 26.3464 36.2066 27.0605 35.8877 27.6432C35.5819 28.2236 35.2322 28.7845 34.8385 29.326C34.6428 29.6033 34.4135 29.7646 34.1507 29.81C33.9405 29.8462 33.7572 29.8034 33.6009 29.6815C33.4423 29.5465 33.3437 29.3673 33.3052 29.144C33.2599 28.8812 33.3099 28.6223 33.4554 28.3672L33.6572 28.0076C34.2257 26.9895 34.6441 26.1596 34.9123 25.5181C35.0699 25.0985 35.2455 24.5473 35.4389 23.8645C35.63 23.1685 35.8112 22.454 35.9824 21.7209C36.1324 21.0997 36.6015 20.7211 37.3899 20.5851C37.7578 20.5217 38.0197 20.5103 38.1755 20.5511C38.3314 20.5919 38.4218 20.6845 38.4467 20.8291C38.4603 20.9079 38.4556 21.0373 38.4325 21.2171C38.4094 21.397 38.3666 21.5803 38.3041 21.767C38.1491 22.2808 38.1 22.7019 38.1567 23.0304C38.1907 23.2275 38.2937 23.433 38.4659 23.6468C38.6513 23.8584 38.9191 24.1166 39.2693 24.4215C39.785 24.9008 40.1819 25.3195 40.4601 25.6774C40.7492 26.0199 40.9334 26.4211 41.0127 26.881C41.0354 27.0124 41.054 27.1986 41.0685 27.4396C41.6693 27.0789 42.3103 26.2851 42.9917 25.0581C43.1176 24.8469 43.2791 24.7244 43.4762 24.6904C43.647 24.6609 43.792 24.7171 43.9112 24.8589C44.0435 24.9984 44.1335 25.2062 44.181 25.4821C44.2672 25.9814 44.2126 26.4102 44.0173 26.7686C43.5009 27.6966 42.9665 28.3638 42.4142 28.7702C41.8728 29.1613 41.1642 29.4459 40.2884 29.624C39.8399 30.1614 39.2543 30.4924 38.5317 30.6171ZM48.5778 18.8787C48.9982 18.8061 49.3328 18.8634 49.5816 19.0505C49.8412 19.2222 50.0073 19.5183 50.0798 19.9388C50.1387 20.2804 50.1775 20.9367 50.1962 21.9076C50.203 22.7318 50.2294 23.512 50.2752 24.2483C50.3187 24.9714 50.4164 25.7731 50.5683 26.6535C50.6544 27.1528 50.6116 27.5322 50.4399 27.7918C50.2791 28.0361 49.9687 28.1978 49.5088 28.2772C49.0752 28.352 48.7406 28.2947 48.505 28.1053C48.2694 27.9159 48.1131 27.5979 48.036 27.1511C47.9453 26.6255 47.8877 25.7425 47.8632 24.5019C47.8396 23.4236 47.8028 22.7399 47.7529 22.4508C47.7167 22.2406 47.6263 22.148 47.4818 22.1729C47.3109 22.2023 47.1064 22.4676 46.8681 22.9688C46.6276 23.4568 46.4119 24.0893 46.2212 24.8663C46.0305 25.6434 45.9058 26.4497 45.8469 27.2852C45.8089 27.9276 45.7106 28.3776 45.5521 28.6349C45.4044 28.8769 45.1269 29.033 44.7195 29.1032C44.3122 29.1735 43.9851 29.0811 43.7381 28.826C43.5021 28.5555 43.2979 28.1172 43.1257 27.511C42.9535 26.9048 42.7643 26.0038 42.558 24.8081C42.209 22.7847 42.0489 20.6407 42.0778 18.3762C42.1198 16.1094 42.4134 14.1645 42.9589 12.5415C43.5151 10.9031 44.3583 9.98647 45.4882 9.79157C46.0926 9.68731 46.6241 9.86625 47.0827 10.3284C47.5521 10.7751 47.8582 11.4123 48.001 12.2401C48.2299 13.5672 48.0802 15.0136 47.5521 16.5795C47.0216 18.1323 46.0469 20.012 44.628 22.2186C44.7064 22.9087 44.808 23.615 44.9326 24.3377C45.1736 23.146 45.4968 22.1567 45.9022 21.3697C46.3186 20.5672 46.7569 19.9707 47.2172 19.5801C47.6906 19.1873 48.1442 18.9534 48.5778 18.8787ZM45.4109 11.8141C45.1744 11.8549 44.9705 12.2419 44.7993 12.975C44.6258 13.695 44.5008 14.6569 44.4244 15.8607C44.3587 17.0492 44.3572 18.3348 44.4199 19.7176C45.0691 18.6179 45.559 17.4578 45.8897 16.2371C46.2335 15.0142 46.326 13.9429 46.1674 13.0231C46.0949 12.6027 45.9934 12.2887 45.8629 12.0812C45.7324 11.8737 45.5817 11.7847 45.4109 11.8141Z" fill="#4F325A"/>
<path d="M17.0458 28.3354C17.2166 28.306 17.3616 28.3622 17.4807 28.504C17.613 28.6435 17.703 28.8512 17.7506 29.1272C17.8412 29.6527 17.7867 30.0816 17.5869 30.4137C17.1026 31.2143 16.5771 31.8936 16.0103 32.4513C15.4567 33.0069 14.7725 33.3549 13.9579 33.4954C13.2878 33.611 12.7491 33.5077 12.3417 33.1856C11.9321 32.8503 11.6638 32.3148 11.5369 31.579C11.4735 31.2111 11.4521 30.5383 11.4729 29.5605C11.5009 28.7033 11.4878 28.117 11.4334 27.8016C11.3971 27.5914 11.3067 27.4988 11.1622 27.5237C10.9914 27.5532 10.7868 27.8185 10.5485 28.3196C10.308 28.8076 10.0923 29.4401 9.90165 30.2171C9.71095 30.9942 9.58618 31.8005 9.52734 32.636C9.459 33.7302 8.9321 34.3623 7.94665 34.5322C7.55247 34.6002 7.26589 34.5076 7.08691 34.2543C6.91879 33.9857 6.77128 33.4834 6.64436 32.7476C6.57184 32.3272 6.52062 31.991 6.4907 31.7391L6.23845 30.159C5.88943 28.1355 5.72935 25.9915 5.75819 23.727C5.80017 21.4602 6.09386 19.5153 6.63927 17.8923C7.19554 16.2539 8.03867 15.3373 9.16865 15.1424C9.77306 15.0381 10.3045 15.2171 10.7631 15.6792C11.2325 16.1259 11.5386 16.7631 11.6814 17.5909C11.9103 18.918 11.7607 20.3645 11.2325 21.9304C10.702 23.4831 9.72733 25.3628 8.30842 27.5694C8.38685 28.2595 8.48839 28.9658 8.61304 29.6885C8.85399 28.4969 9.1772 27.5075 9.58266 26.7205C9.99899 25.918 10.4373 25.3215 10.8976 24.9309C11.3711 24.5381 11.8246 24.3043 12.2582 24.2295C13.1122 24.0822 13.6129 24.4355 13.7602 25.2896C13.8486 25.802 13.8639 26.7533 13.806 28.1433C13.7535 29.3295 13.759 30.1066 13.8224 30.4745C13.9131 31 14.1489 31.23 14.53 31.1642C14.7928 31.1189 15.0743 30.908 15.3747 30.5314C15.686 30.1395 16.0815 29.5301 16.5612 28.7032C16.6872 28.492 16.8487 28.3694 17.0458 28.3354ZM9.09131 17.165C8.8548 17.2057 8.65094 17.5927 8.47973 18.3258C8.30624 19.0458 8.18126 20.0077 8.10477 21.2115C8.03915 22.4 8.03766 23.6856 8.10028 25.0684C8.74947 23.9687 9.23941 22.8086 9.57007 21.5879C9.91388 20.365 10.0065 19.2937 9.84782 18.374C9.7753 17.9535 9.67379 17.6395 9.54328 17.432C9.41278 17.2245 9.26212 17.1355 9.09131 17.165ZM19.1996 32.5913C18.3849 32.7318 17.6835 32.5483 17.0954 32.0409C16.5072 31.5335 16.1305 30.8002 15.965 29.8411C15.7837 28.7899 15.8557 27.756 16.1809 26.7392C16.5039 25.7093 17.0174 24.8428 17.7215 24.1395C18.4364 23.4209 19.2471 22.9834 20.1538 22.827C20.4428 22.7772 20.6435 22.8034 20.7559 22.9058C20.8792 22.9928 20.9986 23.1751 21.1141 23.4529C21.381 23.3527 21.6655 23.2766 21.9677 23.2245C22.6115 23.1134 22.9731 23.2878 23.0524 23.7477C23.1 24.0236 23.1148 24.6976 23.0967 25.7696C23.0552 27.3327 23.0854 28.41 23.1874 29.0012C23.2214 29.1983 23.2945 29.348 23.4069 29.4504C23.5324 29.5506 23.674 29.587 23.8317 29.5598C24.0813 29.5168 24.3563 29.307 24.6567 28.9304C24.9548 28.5408 25.3437 27.9325 25.8235 27.1056C25.9494 26.8944 26.111 26.7718 26.3081 26.7378C26.4789 26.7084 26.6239 26.7646 26.743 26.9064C26.8753 27.0459 26.9653 27.2536 27.0129 27.5296C27.1035 28.0551 27.049 28.484 26.8492 28.8161C26.4261 29.5791 25.9519 30.2427 25.4269 30.8068C24.9018 31.371 24.3567 31.7018 23.7917 31.7992C23.3581 31.874 22.9325 31.7986 22.5147 31.573C22.1078 31.332 21.7682 30.9711 21.4959 30.4904C21.003 31.712 20.2376 32.4122 19.1996 32.5913ZM19.5657 30.4783C19.8548 30.4284 20.1013 30.21 20.3051 29.8231C20.509 29.4361 20.6213 28.95 20.6421 28.3646L20.7458 24.6124C20.1962 24.7207 19.7201 25.0193 19.3173 25.5082C18.9254 25.9817 18.6482 26.5707 18.4856 27.2753C18.323 27.9798 18.3051 28.7 18.432 29.4358C18.5023 29.8431 18.6333 30.1318 18.8249 30.3016C19.0297 30.4693 19.2767 30.5282 19.5657 30.4783ZM32.8602 23.4564C33.1492 23.4065 33.4104 23.4697 33.6438 23.646C33.888 23.8068 34.0362 24.0383 34.0883 24.3405C34.1178 24.5113 34.1101 24.7021 34.0652 24.9128C33.9389 25.4352 33.7135 25.8935 33.3891 26.2877C33.0647 26.6819 32.6726 26.9187 32.2127 26.998C31.8448 27.0614 31.5068 26.9844 31.1987 26.767C30.9037 26.5473 30.7177 26.214 30.6407 25.7673C30.5976 25.5176 30.5643 25.246 30.5407 24.9524C30.5307 24.7377 30.5189 24.5909 30.5053 24.512C30.4872 24.4069 30.4473 24.3326 30.3857 24.2891C30.3372 24.2434 30.2801 24.2261 30.2144 24.2375C30.0305 24.2692 29.8194 24.5356 29.5811 25.0368C29.3405 25.5248 29.1249 26.1573 28.9342 26.9343C28.7435 27.7114 28.6187 28.5177 28.5599 29.3531C28.5241 30.0088 28.4324 30.4576 28.2847 30.6995C28.137 30.9415 27.853 31.0987 27.4325 31.1712C26.9332 31.2573 26.5331 31.0558 26.2322 30.5664C25.9445 30.0749 25.7009 29.2509 25.5015 28.0947C25.2069 26.3866 25.17 24.7219 25.391 23.1008C25.4436 22.6994 25.5865 22.3906 25.8198 22.1744C26.064 21.9429 26.4292 21.7852 26.9153 21.7013C27.1781 21.656 27.3677 21.6571 27.4842 21.7047C27.6006 21.7523 27.6747 21.868 27.7065 22.052C27.7427 22.2622 27.7258 22.7522 27.6556 23.522C27.6148 24.0702 27.589 24.5482 27.5782 24.956C27.5674 25.3638 27.5855 25.8613 27.6327 26.4485C27.8714 25.2437 28.1989 24.2401 28.6152 23.4377C29.0315 22.6352 29.4699 22.0387 29.9302 21.6481C30.3905 21.2575 30.8309 21.026 31.2513 20.9534C31.6324 20.8877 31.9407 20.9495 32.1763 21.1389C32.4228 21.3129 32.5823 21.6101 32.6548 22.0306C32.6979 22.2802 32.7072 22.7657 32.6828 23.487L32.8602 23.4564ZM39.0317 29.6171C38.3484 29.7349 37.7956 29.6679 37.3734 29.416C36.9642 29.1618 36.7256 28.8377 36.6576 28.4435C36.5987 28.1019 36.6725 27.7847 36.8791 27.492C37.0857 27.1993 37.4321 27.011 37.9182 26.9272C38.0891 26.8977 38.2895 26.8834 38.5197 26.8843C38.7607 26.8698 38.9415 26.8589 39.062 26.8516C38.99 26.5123 38.8556 26.204 38.659 25.9267C38.4754 25.6472 38.2548 25.3876 37.997 25.1479C37.7369 24.8951 37.4967 24.6794 37.2765 24.5009C37.0029 25.3464 36.7066 26.0605 36.3877 26.6432C36.0819 27.2236 35.7322 27.7845 35.3385 28.326C35.1428 28.6033 34.9135 28.7646 34.6507 28.81C34.4405 28.8462 34.2572 28.8034 34.1009 28.6815C33.9423 28.5465 33.8437 28.3673 33.8052 28.144C33.7599 27.8812 33.8099 27.6223 33.9554 27.3672L34.1572 27.0076C34.7257 25.9895 35.1441 25.1596 35.4123 24.5181C35.5699 24.0985 35.7455 23.5473 35.9389 22.8645C36.13 22.1685 36.3112 21.454 36.4824 20.7209C36.6324 20.0997 37.1015 19.7211 37.8899 19.5851C38.2578 19.5217 38.5197 19.5103 38.6755 19.5511C38.8314 19.5919 38.9218 19.6845 38.9467 19.8291C38.9603 19.9079 38.9556 20.0373 38.9325 20.2171C38.9094 20.397 38.8666 20.5803 38.8041 20.767C38.6491 21.2808 38.6 21.7019 38.6567 22.0304C38.6907 22.2275 38.7937 22.433 38.9659 22.6468C39.1513 22.8584 39.4191 23.1166 39.7693 23.4215C40.285 23.9008 40.6819 24.3195 40.9601 24.6774C41.2492 25.0199 41.4334 25.4211 41.5127 25.881C41.5354 26.0124 41.554 26.1986 41.5685 26.4396C42.1693 26.0789 42.8103 25.2851 43.4917 24.0581C43.6176 23.8469 43.7791 23.7244 43.9762 23.6904C44.147 23.6609 44.292 23.7171 44.4112 23.8589C44.5435 23.9984 44.6335 24.2062 44.681 24.4821C44.7672 24.9814 44.7126 25.4102 44.5173 25.7686C44.0009 26.6966 43.4665 27.3638 42.9142 27.7702C42.3728 28.1613 41.6642 28.4459 40.7884 28.624C40.3399 29.1614 39.7543 29.4924 39.0317 29.6171ZM49.0778 17.8787C49.4982 17.8061 49.8328 17.8634 50.0816 18.0505C50.3412 18.2222 50.5073 18.5183 50.5798 18.9388C50.6387 19.2804 50.6775 19.9367 50.6962 20.9076C50.703 21.7318 50.7294 22.512 50.7752 23.2483C50.8187 23.9714 50.9164 24.7731 51.0683 25.6535C51.1544 26.1528 51.1116 26.5322 50.9399 26.7918C50.7791 27.0361 50.4687 27.1978 50.0088 27.2772C49.5752 27.352 49.2406 27.2947 49.005 27.1053C48.7694 26.9159 48.6131 26.5979 48.536 26.1511C48.4453 25.6255 48.3877 24.7425 48.3632 23.5019C48.3396 22.4236 48.3028 21.7399 48.2529 21.4508C48.2167 21.2406 48.1263 21.148 47.9818 21.1729C47.8109 21.2023 47.6064 21.4676 47.3681 21.9688C47.1276 22.4568 46.9119 23.0893 46.7212 23.8663C46.5305 24.6434 46.4058 25.4497 46.3469 26.2852C46.3089 26.9276 46.2106 27.3776 46.0521 27.6349C45.9044 27.8769 45.6269 28.033 45.2195 28.1032C44.8122 28.1735 44.4851 28.0811 44.2381 27.826C44.0021 27.5555 43.7979 27.1172 43.6257 26.511C43.4535 25.9048 43.2643 25.0038 43.058 23.8081C42.709 21.7847 42.5489 19.6407 42.5778 17.3762C42.6198 15.1094 42.9134 13.1645 43.4589 11.5415C44.0151 9.90312 44.8583 8.98647 45.9882 8.79157C46.5926 8.68731 47.1241 8.86625 47.5827 9.32836C48.0521 9.77507 48.3582 10.4123 48.501 11.2401C48.7299 12.5672 48.5802 14.0136 48.0521 15.5795C47.5216 17.1323 46.5469 19.012 45.128 21.2186C45.2064 21.9087 45.308 22.615 45.4326 23.3377C45.6736 22.146 45.9968 21.1567 46.4022 20.3697C46.8186 19.5672 47.2569 18.9707 47.7172 18.5801C48.1906 18.1873 48.6442 17.9534 49.0778 17.8787ZM45.9109 10.8141C45.6744 10.8549 45.4705 11.2419 45.2993 11.975C45.1258 12.695 45.0008 13.6569 44.9244 14.8607C44.8587 16.0492 44.8572 17.3348 44.9199 18.7176C45.5691 17.6179 46.059 16.4578 46.3897 15.2371C46.7335 14.0142 46.826 12.9429 46.6674 12.0231C46.5949 11.6027 46.4934 11.2887 46.3629 11.0812C46.2324 10.8737 46.0817 10.7847 45.9109 10.8141Z" fill="#884D9F"/>
<path d="M17.5458 27.3354C17.7166 27.306 17.8616 27.3622 17.9807 27.504C18.113 27.6435 18.203 27.8512 18.2506 28.1272C18.3412 28.6527 18.2867 29.0816 18.0869 29.4137C17.6026 30.2143 17.0771 30.8936 16.5103 31.4513C15.9567 32.0069 15.2725 32.3549 14.4579 32.4954C13.7878 32.611 13.2491 32.5077 12.8417 32.1856C12.4321 31.8503 12.1638 31.3148 12.0369 30.579C11.9735 30.2111 11.9521 29.5383 11.9729 28.5605C12.0009 27.7033 11.9878 27.117 11.9334 26.8016C11.8971 26.5914 11.8067 26.4988 11.6622 26.5237C11.4914 26.5532 11.2868 26.8185 11.0485 27.3196C10.808 27.8076 10.5923 28.4401 10.4016 29.2171C10.211 29.9942 10.0862 30.8005 10.0273 31.636C9.959 32.7302 9.4321 33.3623 8.44665 33.5322C8.05247 33.6002 7.76589 33.5076 7.58691 33.2543C7.41879 32.9857 7.27128 32.4834 7.14436 31.7476C7.07184 31.3272 7.02062 30.991 6.9907 30.7391L6.73845 29.159C6.38943 27.1355 6.22935 24.9915 6.25819 22.727C6.30017 20.4602 6.59386 18.5153 7.13927 16.8923C7.69554 15.2539 8.53867 14.3373 9.66865 14.1424C10.2731 14.0381 10.8045 14.2171 11.2631 14.6792C11.7325 15.1259 12.0386 15.7631 12.1814 16.5909C12.4103 17.918 12.2607 19.3645 11.7325 20.9304C11.202 22.4831 10.2273 24.3628 8.80842 26.5694C8.88685 27.2595 8.98839 27.9658 9.11304 28.6885C9.35399 27.4969 9.6772 26.5075 10.0827 25.7205C10.499 24.918 10.9373 24.3215 11.3976 23.9309C11.8711 23.5381 12.3246 23.3043 12.7582 23.2295C13.6122 23.0822 14.1129 23.4355 14.2602 24.2896C14.3486 24.802 14.3639 25.7533 14.306 27.1433C14.2535 28.3295 14.259 29.1066 14.3224 29.4745C14.4131 30 14.6489 30.23 15.03 30.1642C15.2928 30.1189 15.5743 29.908 15.8747 29.5314C16.186 29.1395 16.5815 28.5301 17.0612 27.7032C17.1872 27.492 17.3487 27.3694 17.5458 27.3354ZM9.59131 16.165C9.3548 16.2057 9.15094 16.5927 8.97973 17.3258C8.80624 18.0458 8.68126 19.0077 8.60477 20.2115C8.53915 21.4 8.53766 22.6856 8.60028 24.0684C9.24947 22.9687 9.73941 21.8086 10.0701 20.5879C10.4139 19.365 10.5065 18.2937 10.3478 17.374C10.2753 16.9535 10.1738 16.6395 10.0433 16.432C9.91278 16.2245 9.76212 16.1355 9.59131 16.165ZM19.6996 31.5913C18.8849 31.7318 18.1835 31.5483 17.5954 31.0409C17.0072 30.5335 16.6305 29.8002 16.465 28.8411C16.2837 27.7899 16.3557 26.756 16.6809 25.7392C17.0039 24.7093 17.5174 23.8428 18.2215 23.1395C18.9364 22.4209 19.7471 21.9834 20.6538 21.827C20.9428 21.7772 21.1435 21.8034 21.2559 21.9058C21.3792 21.9928 21.4986 22.1751 21.6141 22.4529C21.881 22.3527 22.1655 22.2766 22.4677 22.2245C23.1115 22.1134 23.4731 22.2878 23.5524 22.7477C23.6 23.0236 23.6148 23.6976 23.5967 24.7696C23.5552 26.3327 23.5854 27.41 23.6874 28.0012C23.7214 28.1983 23.7945 28.348 23.9069 28.4504C24.0324 28.5506 24.174 28.587 24.3317 28.5598C24.5813 28.5168 24.8563 28.307 25.1567 27.9304C25.4548 27.5408 25.8437 26.9325 26.3235 26.1056C26.4494 25.8944 26.611 25.7718 26.8081 25.7378C26.9789 25.7084 27.1239 25.7646 27.243 25.9064C27.3753 26.0459 27.4653 26.2536 27.5129 26.5296C27.6035 27.0551 27.549 27.484 27.3492 27.8161C26.9261 28.5791 26.4519 29.2427 25.9269 29.8068C25.4018 30.371 24.8567 30.7018 24.2917 30.7992C23.8581 30.874 23.4325 30.7986 23.0147 30.573C22.6078 30.332 22.2682 29.9711 21.9959 29.4904C21.503 30.712 20.7376 31.4122 19.6996 31.5913ZM20.0657 29.4783C20.3548 29.4284 20.6013 29.21 20.8051 28.8231C21.009 28.4361 21.1213 27.95 21.1421 27.3646L21.2458 23.6124C20.6962 23.7207 20.2201 24.0193 19.8173 24.5082C19.4254 24.9817 19.1482 25.5707 18.9856 26.2753C18.823 26.9798 18.8051 27.7 18.932 28.4358C19.0023 28.8431 19.1333 29.1318 19.3249 29.3016C19.5297 29.4693 19.7767 29.5282 20.0657 29.4783ZM33.3602 22.4564C33.6492 22.4065 33.9104 22.4697 34.1438 22.646C34.388 22.8068 34.5362 23.0383 34.5883 23.3405C34.6178 23.5113 34.6101 23.7021 34.5652 23.9128C34.4389 24.4352 34.2135 24.8935 33.8891 25.2877C33.5647 25.6819 33.1726 25.9187 32.7127 25.998C32.3448 26.0614 32.0068 25.9844 31.6987 25.767C31.4037 25.5473 31.2177 25.214 31.1407 24.7673C31.0976 24.5176 31.0643 24.246 31.0407 23.9524C31.0307 23.7377 31.0189 23.5909 31.0053 23.512C30.9872 23.4069 30.9473 23.3326 30.8857 23.2891C30.8372 23.2434 30.7801 23.2261 30.7144 23.2375C30.5305 23.2692 30.3194 23.5356 30.0811 24.0368C29.8405 24.5248 29.6249 25.1573 29.4342 25.9343C29.2435 26.7114 29.1187 27.5177 29.0599 28.3531C29.0241 29.0088 28.9324 29.4576 28.7847 29.6995C28.637 29.9415 28.353 30.0987 27.9325 30.1712C27.4332 30.2573 27.0331 30.0558 26.7322 29.5664C26.4445 29.0749 26.2009 28.2509 26.0015 27.0947C25.7069 25.3866 25.67 23.7219 25.891 22.1008C25.9436 21.6994 26.0865 21.3906 26.3198 21.1744C26.564 20.9429 26.9292 20.7852 27.4153 20.7013C27.6781 20.656 27.8677 20.6571 27.9842 20.7047C28.1006 20.7523 28.1747 20.868 28.2065 21.052C28.2427 21.2622 28.2258 21.7522 28.1556 22.522C28.1148 23.0702 28.089 23.5482 28.0782 23.956C28.0674 24.3638 28.0855 24.8613 28.1327 25.4485C28.3714 24.2437 28.6989 23.2401 29.1152 22.4377C29.5315 21.6352 29.9699 21.0387 30.4302 20.6481C30.8905 20.2575 31.3309 20.026 31.7513 19.9534C32.1324 19.8877 32.4407 19.9495 32.6763 20.1389C32.9228 20.3129 33.0823 20.6101 33.1548 21.0306C33.1979 21.2802 33.2072 21.7657 33.1828 22.487L33.3602 22.4564ZM39.5317 28.6171C38.8484 28.7349 38.2956 28.6679 37.8734 28.416C37.4642 28.1618 37.2256 27.8377 37.1576 27.4435C37.0987 27.1019 37.1725 26.7847 37.3791 26.492C37.5857 26.1993 37.9321 26.011 38.4182 25.9272C38.5891 25.8977 38.7895 25.8834 39.0197 25.8843C39.2607 25.8698 39.4415 25.8589 39.562 25.8516C39.49 25.5123 39.3556 25.204 39.159 24.9267C38.9754 24.6472 38.7548 24.3876 38.497 24.1479C38.2369 23.8951 37.9967 23.6794 37.7765 23.5009C37.5029 24.3464 37.2066 25.0605 36.8877 25.6432C36.5819 26.2236 36.2322 26.7845 35.8385 27.326C35.6428 27.6033 35.4135 27.7646 35.1507 27.81C34.9405 27.8462 34.7572 27.8034 34.6009 27.6815C34.4423 27.5465 34.3437 27.3673 34.3052 27.144C34.2599 26.8812 34.3099 26.6223 34.4554 26.3672L34.6572 26.0076C35.2257 24.9895 35.6441 24.1596 35.9123 23.5181C36.0699 23.0985 36.2455 22.5473 36.4389 21.8645C36.63 21.1685 36.8112 20.454 36.9824 19.7209C37.1324 19.0997 37.6015 18.7211 38.3899 18.5851C38.7578 18.5217 39.0197 18.5103 39.1755 18.5511C39.3314 18.5919 39.4218 18.6845 39.4467 18.8291C39.4603 18.9079 39.4556 19.0373 39.4325 19.2171C39.4094 19.397 39.3666 19.5803 39.3041 19.767C39.1491 20.2808 39.1 20.7019 39.1567 21.0304C39.1907 21.2275 39.2937 21.433 39.4659 21.6468C39.6513 21.8584 39.9191 22.1166 40.2693 22.4215C40.785 22.9008 41.1819 23.3195 41.4601 23.6774C41.7492 24.0199 41.9334 24.4211 42.0127 24.881C42.0354 25.0124 42.054 25.1986 42.0685 25.4396C42.6693 25.0789 43.3103 24.2851 43.9917 23.0581C44.1176 22.8469 44.2791 22.7244 44.4762 22.6904C44.647 22.6609 44.792 22.7171 44.9112 22.8589C45.0435 22.9984 45.1335 23.2062 45.181 23.4821C45.2672 23.9814 45.2126 24.4102 45.0173 24.7686C44.5009 25.6966 43.9665 26.3638 43.4142 26.7702C42.8728 27.1613 42.1642 27.4459 41.2884 27.624C40.8399 28.1614 40.2543 28.4924 39.5317 28.6171ZM49.5778 16.8787C49.9982 16.8061 50.3328 16.8634 50.5816 17.0505C50.8412 17.2222 51.0073 17.5183 51.0798 17.9388C51.1387 18.2804 51.1775 18.9367 51.1962 19.9076C51.203 20.7318 51.2294 21.512 51.2752 22.2483C51.3187 22.9714 51.4164 23.7731 51.5683 24.6535C51.6544 25.1528 51.6116 25.5322 51.4399 25.7918C51.2791 26.0361 50.9687 26.1978 50.5088 26.2772C50.0752 26.352 49.7406 26.2947 49.505 26.1053C49.2694 25.9159 49.1131 25.5979 49.036 25.1511C48.9453 24.6255 48.8877 23.7425 48.8632 22.5019C48.8396 21.4236 48.8028 20.7399 48.7529 20.4508C48.7167 20.2406 48.6263 20.148 48.4818 20.1729C48.3109 20.2023 48.1064 20.4676 47.8681 20.9688C47.6276 21.4568 47.4119 22.0893 47.2212 22.8663C47.0305 23.6434 46.9058 24.4497 46.8469 25.2852C46.8089 25.9276 46.7106 26.3776 46.5521 26.6349C46.4044 26.8769 46.1269 27.033 45.7195 27.1032C45.3122 27.1735 44.9851 27.0811 44.7381 26.826C44.5021 26.5555 44.2979 26.1172 44.1257 25.511C43.9535 24.9048 43.7643 24.0038 43.558 22.8081C43.209 20.7847 43.0489 18.6407 43.0778 16.3762C43.1198 14.1094 43.4134 12.1645 43.9589 10.5415C44.5151 8.90312 45.3583 7.98647 46.4882 7.79157C47.0926 7.68731 47.6241 7.86625 48.0827 8.32836C48.5521 8.77507 48.8582 9.41231 49.001 10.2401C49.2299 11.5672 49.0802 13.0136 48.5521 14.5795C48.0216 16.1323 47.0469 18.012 45.628 20.2186C45.7064 20.9087 45.808 21.615 45.9326 22.3377C46.1736 21.146 46.4968 20.1567 46.9022 19.3697C47.3186 18.5672 47.7569 17.9707 48.2172 17.5801C48.6906 17.1873 49.1442 16.9534 49.5778 16.8787ZM46.4109 9.81414C46.1744 9.85494 45.9705 10.2419 45.7993 10.975C45.6258 11.695 45.5008 12.6569 45.4244 13.8607C45.3587 15.0492 45.3572 16.3348 45.4199 17.7176C46.0691 16.6179 46.559 15.4578 46.8897 14.2371C47.2335 13.0142 47.326 11.9429 47.1674 11.0231C47.0949 10.6027 46.9934 10.2887 46.8629 10.0812C46.7324 9.8737 46.5817 9.78468 46.4109 9.81414Z" fill="white"/>
<path d="M19.2993 50.2127C18.9708 50.2693 18.6648 50.2207 18.3811 50.0666C18.0975 49.9126 17.9194 49.6254 17.8469 49.2049L17.8292 48.9847C17.7403 47.6064 17.6686 46.1711 17.6141 44.6786C17.5705 43.1707 17.553 42.0102 17.5615 41.1969L16.099 41.8956L15.8693 41.9758C15.6197 42.0189 15.4056 41.9543 15.2271 41.7822C15.0485 41.61 14.9377 41.3991 14.8947 41.1495L14.8838 40.9687C14.867 40.7145 14.9107 40.4973 15.0149 40.3169C15.1191 40.1366 15.3416 39.9359 15.6823 39.7147C16.0361 39.4913 16.5716 39.2231 17.2889 38.9099L18.0826 38.5701C18.3735 38.4522 18.6175 38.3763 18.8146 38.3423C19.1956 38.2766 19.4951 38.3264 19.7131 38.4918C19.9441 38.6549 20.0903 38.9138 20.1515 39.2686C20.1787 39.4263 20.1884 39.6005 20.1807 39.7912C20.1473 40.8523 20.2497 43.8384 20.4879 48.7494C20.5233 49.5821 20.1271 50.0699 19.2993 50.2127ZM33.4272 43.7574C33.598 43.7279 33.743 43.7841 33.8621 43.9259C33.9945 44.0654 34.0844 44.2732 34.132 44.5491C34.2136 45.0221 34.1722 45.4487 34.0077 45.8288C33.4387 47.1582 32.4381 47.9464 31.006 48.1935C30.3884 48.3 29.8162 48.2769 29.2892 48.1243C28.7731 47.9562 28.3243 47.6683 27.9428 47.2605C27.3416 48.3249 26.5352 48.9443 25.5235 49.1188C24.8008 49.2435 24.193 49.1318 23.7 48.7839C23.207 48.436 22.9005 47.9138 22.7804 47.2174C22.667 46.5604 22.7264 46.0022 22.9583 45.5428C23.1903 45.0833 23.5822 44.806 24.134 44.7108C24.607 44.6293 24.8741 44.7658 24.9353 45.1206C24.9534 45.2257 24.972 45.4119 24.9911 45.6793L25.0611 46.4384C25.1291 46.8326 25.3339 47.0002 25.6756 46.9413C25.9252 46.8982 26.1368 46.7129 26.3103 46.3853C26.4947 46.0423 26.6149 45.6021 26.6711 45.0648C26.7404 44.5251 26.7218 43.9465 26.6152 43.329C26.5336 42.856 26.4065 42.472 26.2339 42.1771C26.059 41.869 25.8861 41.7297 25.7153 41.7591C25.5708 41.784 25.4724 41.8416 25.4204 41.9318C25.366 42.0088 25.3207 42.1384 25.2845 42.3205C25.2419 42.5443 25.1662 42.7333 25.0575 42.8873C24.9465 43.0283 24.7268 43.127 24.3983 43.1837C24.1092 43.2336 23.8623 43.1747 23.6575 43.0071C23.4504 42.8263 23.3106 42.5257 23.2381 42.1052C23.1225 41.4351 23.2355 40.8744 23.5771 40.4231C23.9187 39.9718 24.4114 39.6906 25.0552 39.5796C25.6071 39.4844 26.1302 39.5363 26.6245 39.7351C27.1166 39.9209 27.525 40.2495 27.8499 40.7212C28.1535 40.1276 28.5256 39.6575 28.9665 39.3109C29.4204 38.962 29.8839 38.7467 30.3569 38.6651C30.8694 38.5767 31.2774 38.6281 31.581 38.8193C31.8977 39.0082 32.1014 39.3655 32.192 39.8911C32.294 40.4823 32.2628 40.968 32.0983 41.3482C31.9316 41.7152 31.6906 41.9259 31.3753 41.9803C31.0862 42.0301 30.8789 42.005 30.7534 41.9049C30.6279 41.8048 30.5196 41.6476 30.4285 41.4333C30.375 41.2801 30.3152 41.1687 30.249 41.0989C30.1829 41.0291 30.0841 41.0056 29.9527 41.0282C29.7951 41.0554 29.6503 41.236 29.5185 41.5699C29.3975 41.8884 29.3133 42.3021 29.2657 42.8109C29.2313 43.3175 29.2595 43.8335 29.3501 44.3591C29.4521 44.9504 29.6651 45.4007 29.9891 45.7102C30.3262 46.0173 30.6853 46.1381 31.0663 46.0723C31.789 45.9477 32.4155 45.3052 32.946 44.1448C33.0434 43.925 33.2038 43.7959 33.4272 43.7574ZM43.3321 41.3995C44.0285 41.2794 44.4277 41.5149 44.5296 42.1062C44.6112 42.5792 44.5365 42.9304 44.3054 43.1596C44.0744 43.3889 43.6763 43.5523 43.1114 43.6497L42.6975 43.7211L42.7988 44.7793C42.8636 45.3905 42.8025 45.8205 42.6154 46.0692C42.4414 46.3157 42.1114 46.4809 41.6252 46.5648C40.9288 46.6849 40.507 46.3179 40.3597 45.4639C40.3347 45.3193 40.322 45.2065 40.3216 45.1254L40.2536 44.1427C38.3484 44.4713 36.9019 44.714 35.9142 44.8708C35.6251 44.9207 35.3462 44.8335 35.0775 44.6092C34.8089 44.385 34.6382 44.0626 34.5657 43.6422C34.5227 43.3925 34.5233 43.1218 34.5677 42.83C34.8557 41.0485 35.3932 38.9871 36.18 36.646C36.3504 36.143 36.5445 35.7781 36.7624 35.5511C36.9912 35.3086 37.3749 35.141 37.9137 35.048C38.2027 34.9982 38.4308 35.0265 38.598 35.133C38.7784 35.2372 38.8867 35.3944 38.9229 35.6046C38.9615 35.828 38.9343 36.0627 38.8414 36.3087C37.9595 38.8827 37.3803 40.9377 37.104 42.4737L40.1392 41.9502C40.0861 40.701 40.1024 39.5008 40.1879 38.3495C40.2228 37.9241 40.3403 37.5858 40.5406 37.3348C40.7386 37.0707 41.0478 36.9023 41.4682 36.8298C42.1383 36.7142 42.5232 36.9455 42.623 37.5236C42.6524 37.6944 42.662 37.8281 42.6515 37.9246C42.6077 39.0822 42.598 40.2813 42.6226 41.5219L43.3321 41.3995Z" fill="#4F325A"/>
<path d="M19.7993 49.2127C19.4708 49.2693 19.1648 49.2207 18.8811 49.0666C18.5975 48.9126 18.4194 48.6254 18.3469 48.2049L18.3292 47.9847C18.2403 46.6064 18.1686 45.1711 18.1141 43.6786C18.0705 42.1707 18.053 41.0102 18.0615 40.1969L16.599 40.8956L16.3693 40.9758C16.1197 41.0189 15.9056 40.9543 15.7271 40.7822C15.5485 40.61 15.4377 40.3991 15.3947 40.1495L15.3838 39.9687C15.367 39.7145 15.4107 39.4973 15.5149 39.3169C15.6191 39.1366 15.8416 38.9359 16.1823 38.7147C16.5361 38.4913 17.0716 38.2231 17.7889 37.9099L18.5826 37.5701C18.8735 37.4522 19.1175 37.3763 19.3146 37.3423C19.6956 37.2766 19.9951 37.3264 20.2131 37.4918C20.4441 37.6549 20.5903 37.9138 20.6515 38.2686C20.6787 38.4263 20.6884 38.6005 20.6807 38.7912C20.6473 39.8523 20.7497 42.8384 20.9879 47.7494C21.0233 48.5821 20.6271 49.0699 19.7993 49.2127ZM33.9272 42.7574C34.098 42.7279 34.243 42.7841 34.3621 42.9259C34.4945 43.0654 34.5844 43.2732 34.632 43.5491C34.7136 44.0221 34.6722 44.4487 34.5077 44.8288C33.9387 46.1582 32.9381 46.9464 31.506 47.1935C30.8884 47.3 30.3162 47.2769 29.7892 47.1243C29.2731 46.9562 28.8243 46.6683 28.4428 46.2605C27.8416 47.3249 27.0352 47.9443 26.0235 48.1188C25.3008 48.2435 24.693 48.1318 24.2 47.7839C23.707 47.436 23.4005 46.9138 23.2804 46.2174C23.167 45.5604 23.2264 45.0022 23.4583 44.5428C23.6903 44.0833 24.0822 43.806 24.634 43.7108C25.107 43.6293 25.3741 43.7658 25.4353 44.1206C25.4534 44.2257 25.472 44.4119 25.4911 44.6793L25.5611 45.4384C25.6291 45.8326 25.8339 46.0002 26.1756 45.9413C26.4252 45.8982 26.6368 45.7129 26.8103 45.3853C26.9947 45.0423 27.1149 44.6021 27.1711 44.0648C27.2404 43.5251 27.2218 42.9465 27.1152 42.329C27.0336 41.856 26.9065 41.472 26.7339 41.1771C26.559 40.869 26.3861 40.7297 26.2153 40.7591C26.0708 40.784 25.9724 40.8416 25.9204 40.9318C25.866 41.0088 25.8207 41.1384 25.7845 41.3205C25.7419 41.5443 25.6662 41.7333 25.5575 41.8873C25.4465 42.0283 25.2268 42.127 24.8983 42.1837C24.6092 42.2336 24.3623 42.1747 24.1575 42.0071C23.9504 41.8263 23.8106 41.5257 23.7381 41.1052C23.6225 40.4351 23.7355 39.8744 24.0771 39.4231C24.4187 38.9718 24.9114 38.6906 25.5552 38.5796C26.1071 38.4844 26.6302 38.5363 27.1245 38.7351C27.6166 38.9209 28.025 39.2495 28.3499 39.7212C28.6535 39.1276 29.0256 38.6575 29.4665 38.3109C29.9204 37.962 30.3839 37.7467 30.8569 37.6651C31.3694 37.5767 31.7774 37.6281 32.081 37.8193C32.3977 38.0082 32.6014 38.3655 32.692 38.8911C32.794 39.4823 32.7628 39.968 32.5983 40.3482C32.4316 40.7152 32.1906 40.9259 31.8753 40.9803C31.5862 41.0301 31.3789 41.005 31.2534 40.9049C31.1279 40.8048 31.0196 40.6476 30.9285 40.4333C30.875 40.2801 30.8152 40.1687 30.749 40.0989C30.6829 40.0291 30.5841 40.0056 30.4527 40.0282C30.2951 40.0554 30.1503 40.236 30.0185 40.5699C29.8975 40.8884 29.8133 41.3021 29.7657 41.8109C29.7313 42.3175 29.7595 42.8335 29.8501 43.3591C29.9521 43.9504 30.1651 44.4007 30.4891 44.7102C30.8262 45.0173 31.1853 45.1381 31.5663 45.0723C32.289 44.9477 32.9155 44.3052 33.446 43.1448C33.5434 42.925 33.7038 42.7959 33.9272 42.7574ZM43.8321 40.3995C44.5285 40.2794 44.9277 40.5149 45.0296 41.1062C45.1112 41.5792 45.0365 41.9304 44.8054 42.1596C44.5744 42.3889 44.1763 42.5523 43.6114 42.6497L43.1975 42.7211L43.2988 43.7793C43.3636 44.3905 43.3025 44.8205 43.1154 45.0692C42.9414 45.3157 42.6114 45.4809 42.1252 45.5648C41.4288 45.6849 41.007 45.3179 40.8597 44.4639C40.8347 44.3193 40.822 44.2065 40.8216 44.1254L40.7536 43.1427C38.8484 43.4713 37.4019 43.714 36.4142 43.8708C36.1251 43.9207 35.8462 43.8335 35.5775 43.6092C35.3089 43.385 35.1382 43.0626 35.0657 42.6422C35.0227 42.3925 35.0233 42.1218 35.0677 41.83C35.3557 40.0485 35.8932 37.9871 36.68 35.646C36.8504 35.143 37.0445 34.7781 37.2624 34.5511C37.4912 34.3086 37.8749 34.141 38.4137 34.048C38.7027 33.9982 38.9308 34.0265 39.098 34.133C39.2784 34.2372 39.3867 34.3944 39.4229 34.6046C39.4615 34.828 39.4343 35.0627 39.3414 35.3087C38.4595 37.8827 37.8803 39.9377 37.604 41.4737L40.6392 40.9502C40.5861 39.701 40.6024 38.5008 40.6879 37.3495C40.7228 36.9241 40.8403 36.5858 41.0406 36.3348C41.2386 36.0707 41.5478 35.9023 41.9682 35.8298C42.6383 35.7142 43.0232 35.9455 43.123 36.5236C43.1524 36.6944 43.162 36.8281 43.1515 36.9246C43.1077 38.0822 43.098 39.2813 43.1226 40.5219L43.8321 40.3995Z" fill="#884D9F"/>
<path d="M20.2993 48.2127C19.9708 48.2693 19.6648 48.2207 19.3811 48.0666C19.0975 47.9126 18.9194 47.6254 18.8469 47.2049L18.8292 46.9847C18.7403 45.6064 18.6686 44.1711 18.6141 42.6786C18.5705 41.1707 18.553 40.0102 18.5615 39.1969L17.099 39.8956L16.8693 39.9758C16.6197 40.0189 16.4056 39.9543 16.2271 39.7822C16.0485 39.61 15.9377 39.3991 15.8947 39.1495L15.8838 38.9687C15.867 38.7145 15.9107 38.4973 16.0149 38.3169C16.1191 38.1366 16.3416 37.9359 16.6823 37.7147C17.0361 37.4913 17.5716 37.2231 18.2889 36.9099L19.0826 36.5701C19.3735 36.4522 19.6175 36.3763 19.8146 36.3423C20.1956 36.2766 20.4951 36.3264 20.7131 36.4918C20.9441 36.6549 21.0903 36.9138 21.1515 37.2686C21.1787 37.4263 21.1884 37.6005 21.1807 37.7912C21.1473 38.8523 21.2497 41.8384 21.4879 46.7494C21.5233 47.5821 21.1271 48.0699 20.2993 48.2127ZM34.4272 41.7574C34.598 41.7279 34.743 41.7841 34.8621 41.9259C34.9945 42.0654 35.0844 42.2732 35.132 42.5491C35.2136 43.0221 35.1722 43.4487 35.0077 43.8288C34.4387 45.1582 33.4381 45.9464 32.006 46.1935C31.3884 46.3 30.8162 46.2769 30.2892 46.1243C29.7731 45.9562 29.3243 45.6683 28.9428 45.2605C28.3416 46.3249 27.5352 46.9443 26.5235 47.1188C25.8008 47.2435 25.193 47.1318 24.7 46.7839C24.207 46.436 23.9005 45.9138 23.7804 45.2174C23.667 44.5604 23.7264 44.0022 23.9583 43.5428C24.1903 43.0833 24.5822 42.806 25.134 42.7108C25.607 42.6293 25.8741 42.7658 25.9353 43.1206C25.9534 43.2257 25.972 43.4119 25.9911 43.6793L26.0611 44.4384C26.1291 44.8326 26.3339 45.0002 26.6756 44.9413C26.9252 44.8982 27.1368 44.7129 27.3103 44.3853C27.4947 44.0423 27.6149 43.6021 27.6711 43.0648C27.7404 42.5251 27.7218 41.9465 27.6152 41.329C27.5336 40.856 27.4065 40.472 27.2339 40.1771C27.059 39.869 26.8861 39.7297 26.7153 39.7591C26.5708 39.784 26.4724 39.8416 26.4204 39.9318C26.366 40.0088 26.3207 40.1384 26.2845 40.3205C26.2419 40.5443 26.1662 40.7333 26.0575 40.8873C25.9465 41.0283 25.7268 41.127 25.3983 41.1837C25.1092 41.2336 24.8623 41.1747 24.6575 41.0071C24.4504 40.8263 24.3106 40.5257 24.2381 40.1052C24.1225 39.4351 24.2355 38.8744 24.5771 38.4231C24.9187 37.9718 25.4114 37.6906 26.0552 37.5796C26.6071 37.4844 27.1302 37.5363 27.6245 37.7351C28.1166 37.9209 28.525 38.2495 28.8499 38.7212C29.1535 38.1276 29.5256 37.6575 29.9665 37.3109C30.4204 36.962 30.8839 36.7467 31.3569 36.6651C31.8694 36.5767 32.2774 36.6281 32.581 36.8193C32.8977 37.0082 33.1014 37.3655 33.192 37.8911C33.294 38.4823 33.2628 38.968 33.0983 39.3482C32.9316 39.7152 32.6906 39.9259 32.3753 39.9803C32.0862 40.0301 31.8789 40.005 31.7534 39.9049C31.6279 39.8048 31.5196 39.6476 31.4285 39.4333C31.375 39.2801 31.3152 39.1687 31.249 39.0989C31.1829 39.0291 31.0841 39.0056 30.9527 39.0282C30.7951 39.0554 30.6503 39.236 30.5185 39.5699C30.3975 39.8884 30.3133 40.3021 30.2657 40.8109C30.2313 41.3175 30.2595 41.8335 30.3501 42.3591C30.4521 42.9504 30.6651 43.4007 30.9891 43.7102C31.3262 44.0173 31.6853 44.1381 32.0663 44.0723C32.789 43.9477 33.4155 43.3052 33.946 42.1448C34.0434 41.925 34.2038 41.7959 34.4272 41.7574ZM44.3321 39.3995C45.0285 39.2794 45.4277 39.5149 45.5296 40.1062C45.6112 40.5792 45.5365 40.9304 45.3054 41.1596C45.0744 41.3889 44.6763 41.5523 44.1114 41.6497L43.6975 41.7211L43.7988 42.7793C43.8636 43.3905 43.8025 43.8205 43.6154 44.0692C43.4414 44.3157 43.1114 44.4809 42.6252 44.5648C41.9288 44.6849 41.507 44.3179 41.3597 43.4639C41.3347 43.3193 41.322 43.2065 41.3216 43.1254L41.2536 42.1427C39.3484 42.4713 37.9019 42.714 36.9142 42.8708C36.6251 42.9207 36.3462 42.8335 36.0775 42.6092C35.8089 42.385 35.6382 42.0626 35.5657 41.6422C35.5227 41.3925 35.5233 41.1218 35.5677 40.83C35.8557 39.0485 36.3932 36.9871 37.18 34.646C37.3504 34.143 37.5445 33.7781 37.7624 33.5511C37.9912 33.3086 38.3749 33.141 38.9137 33.048C39.2027 32.9982 39.4308 33.0265 39.598 33.133C39.7784 33.2372 39.8867 33.3944 39.9229 33.6046C39.9615 33.828 39.9343 34.0627 39.8414 34.3087C38.9595 36.8827 38.3803 38.9377 38.104 40.4737L41.1392 39.9502C41.0861 38.701 41.1024 37.5008 41.1879 36.3495C41.2228 35.9241 41.3403 35.5858 41.5406 35.3348C41.7386 35.0707 42.0478 34.9023 42.4682 34.8298C43.1383 34.7142 43.5232 34.9455 43.623 35.5236C43.6524 35.6944 43.662 35.8281 43.6515 35.9246C43.6077 37.0822 43.598 38.2813 43.6226 39.5219L44.3321 39.3995Z" fill="white"/>
</svg>
