<svg xmlns="http://www.w3.org/2000/svg" version="1.1" xmlns:xlink="http://www.w3.org/1999/xlink" xmlns:svgjs="http://svgjs.com/svgjs" width="512" height="512" x="0" y="0" viewBox="0 0 512 512" style="enable-background:new 0 0 512 512" xml:space="preserve" class=""><g>
<path style="" d="M383.995,220.258L256.021,0c-0.01,0-0.01,0-0.021,0C114.615,0,0,114.615,0,256s114.615,256,256,256
	v-0.01c1.95,0,3.888-0.051,5.816-0.137l0.02,0.006l0.693-0.034c0.033-0.001,0.066-0.003,0.098-0.004l7.159-0.347l5.151-0.547
	l4.958-0.709l7.778-1.29l25.865-5.939l24.739-9.775l25.965-20.417l56.291-83.695L383.995,220.258z M247.366,0.306
	c2.72-0.181,5.462-0.282,8.226-0.292L247.366,0.306z" fill="#ffffff" data-original="#f2f2f2" class=""></path>
<path style="" d="M512,256c0,141.385-114.615,256-256,256v-0.01c70.688,0,127.995-57.308,127.995-127.995
	S326.688,256,256,256s-127.995-57.308-127.995-127.995S185.312,0.01,256,0.01L256.021,0C397.395,0.01,512,114.625,512,256z" fill="#000000" data-original="#272933" class=""></path>
<circle style="" cx="256" cy="128" r="33.863" fill="#ffffff" data-original="#f2f2f2" class=""></circle>
<circle style="" cx="256" cy="384" r="33.863" fill="#000000" data-original="#272933" class=""></circle>
<g>
</g>
<g>
</g>
<g>
</g>
<g>
</g>
<g>
</g>
<g>
</g>
<g>
</g>
<g>
</g>
<g>
</g>
<g>
</g>
<g>
</g>
<g>
</g>
<g>
</g>
<g>
</g>
<g>
</g>
</g></svg>