<svg width="126" height="101" viewBox="0 0 126 101" fill="none" xmlns="http://www.w3.org/2000/svg">
<path d="M63.8436 30.575H52.5651V46.4972H62.0648C69.4071 46.4972 73.4566 43.5419 73.4566 38.259C73.4566 33.3087 69.9748 30.575 63.8436 30.575Z" fill="url(#paint0_linear_103_71)"/>
<path d="M52.5651 52.8144V70.3621H64.2598C71.905 70.3621 75.9544 67.2958 75.9544 61.5328C75.9544 55.7697 71.7912 52.8144 63.7677 52.8144H52.5651Z" fill="url(#paint1_linear_103_71)"/>
<path fill-rule="evenodd" clip-rule="evenodd" d="M26.125 0C18.948 0 13.639 6.284 13.876 13.099C14.103 19.645 13.808 28.125 11.673 35.039C9.533 41.975 5.913 46.359 0 46.922V53.309C5.913 53.873 9.533 58.257 11.673 65.192C13.808 72.106 14.104 80.586 13.876 87.132C13.639 93.946 18.948 100.23 26.125 100.23H99.665C106.842 100.23 112.151 93.947 111.914 87.132C111.686 80.586 111.982 72.106 114.116 65.192C116.257 58.256 119.867 53.873 125.78 53.309V46.922C119.867 46.358 116.257 41.975 114.116 35.039C111.982 28.125 111.686 19.645 111.914 13.099C112.151 6.284 106.842 0 99.665 0H26.125ZM84.6213 62.0502C84.6213 71.4337 77.6198 77.1227 66.0008 77.1227H44.0874V23.8145H65.8873C75.5761 23.8145 81.9343 29.0605 81.9343 37.114C81.9343 42.7661 77.6576 47.8272 72.2076 48.7138V49.0093C79.6256 49.8222 84.6213 54.9573 84.6213 62.0502Z" fill="url(#paint2_linear_103_71)"/>
<defs>
<linearGradient id="paint0_linear_103_71" x1="18.6906" y1="2.65264" x2="128.599" y2="89.8993" gradientUnits="userSpaceOnUse">
<stop stop-color="#9013FE"/>
<stop offset="1" stop-color="#6610F2"/>
</linearGradient>
<linearGradient id="paint1_linear_103_71" x1="18.6906" y1="2.65264" x2="128.599" y2="89.8993" gradientUnits="userSpaceOnUse">
<stop stop-color="#9013FE"/>
<stop offset="1" stop-color="#6610F2"/>
</linearGradient>
<linearGradient id="paint2_linear_103_71" x1="18.6906" y1="2.65264" x2="128.599" y2="89.8993" gradientUnits="userSpaceOnUse">
<stop stop-color="#9013FE"/>
<stop offset="1" stop-color="#6610F2"/>
</linearGradient>
</defs>
</svg>
