<svg width="111" height="125" viewBox="0 0 111 125" fill="none" xmlns="http://www.w3.org/2000/svg">
<path d="M55.0126 124.933L10.0254 112.444L0 0H110.16L100.124 112.427L55.0126 124.933V124.933Z" fill="#264DE4"/>
<path d="M91.5324 105.268L100.108 9.19373H55.08V115.374L91.5324 105.268V105.268Z" fill="#2965F1"/>
<path d="M22.9829 50.8979L24.2187 64.6887H55.08V50.8979H22.9829ZM20.4991 22.985L21.7526 36.7758H55.08V22.985H20.4991V22.985ZM55.08 86.7142L55.0196 86.7302L39.6608 82.5831L38.6789 71.5843H24.8349L26.7669 93.2381L55.0165 101.08L55.08 101.063V86.7142Z" fill="#EBEBEB"/>
<path d="M87.089 50.8979L89.5785 22.985H55.0325V36.7758H74.465L73.2101 50.8979H55.0325V64.6887H72.0144L70.4133 82.5744L55.0321 86.7259V101.073L83.3042 93.2381L83.5115 90.908L86.7527 54.6011L87.089 50.8979V50.8979Z" fill="white"/>
</svg>
