<svg width="111" height="125" viewBox="0 0 111 125" fill="none" xmlns="http://www.w3.org/2000/svg">
<path d="M110.163 0L100.127 112.43L55.014 124.936L10.0257 112.447L0 0H110.163Z" fill="#E44D26"/>
<path d="M55.0814 115.377L91.5347 105.271L100.111 9.19397H55.0814V115.377Z" fill="#F16529"/>
<path d="M35.5715 36.7768H55.0814V22.9856H20.4996L20.8295 26.6855L24.2193 64.6903H55.0814V50.8991H36.832L35.5715 36.7768V36.7768ZM38.6798 71.5861H24.8355L26.7675 93.2404L55.0179 101.082L55.0814 101.065V86.7164L55.0209 86.7324L39.6618 82.5851L38.6798 71.5861V71.5861Z" fill="#EBEBEB"/>
<path d="M55.0338 64.6903H72.0162L70.415 82.5765L55.0334 86.728V101.076L83.3062 93.2404L83.5135 90.9103L86.7548 54.6025L87.0912 50.8991H55.0338V64.6903ZM55.0338 36.7431V36.7768H88.3461L88.6224 33.6771L89.2512 26.6855L89.5806 22.9856H55.0338V36.7435V36.7431Z" fill="white"/>
</svg>
