<svg width="200" height="200" viewBox="0 0 200 200" fill="none" xmlns="http://www.w3.org/2000/svg">
<path fill-rule="evenodd" clip-rule="evenodd" d="M164.583 1.61203e-05H35.4167C30.7645 -0.00448106 26.157 0.932018 21.8581 2.75592C17.5592 4.57981 13.6532 7.25531 10.3635 10.6293C7.07392 14.0032 4.46532 18.0094 2.68702 22.4186C0.908717 26.8277 -0.00436903 31.5533 1.57173e-05 36.3248V163.675C-0.00436903 168.447 0.908717 173.172 2.68702 177.581C4.46532 181.991 7.07392 185.997 10.3635 189.371C13.6532 192.745 17.5592 195.42 21.8581 197.244C26.157 199.068 30.7645 200.004 35.4167 200H164.583C169.236 200.004 173.843 199.068 178.142 197.244C182.441 195.42 186.347 192.745 189.636 189.371C192.926 185.997 195.535 181.991 197.313 177.581C199.091 173.172 200.004 168.447 200 163.675V36.3248C200.004 31.5533 199.091 26.8277 197.313 22.4186C195.535 18.0094 192.926 14.0032 189.636 10.6293C186.347 7.25531 182.441 4.57981 178.142 2.75592C173.843 0.932018 169.236 -0.00448106 164.583 1.61203e-05ZM153.229 167.905C143.959 167.905 138.717 163.07 134.689 156.492L119.416 165.365C124.933 176.267 136.21 184.584 153.663 184.584C171.514 184.584 184.806 175.314 184.806 158.394C184.806 142.698 175.79 135.717 159.822 128.87L155.124 126.857C147.06 123.365 143.568 121.083 143.568 115.444C143.568 110.883 147.057 107.39 152.562 107.39C157.959 107.39 161.435 109.667 164.657 115.444L179.292 106.048C173.102 95.1587 164.511 91 152.562 91C135.778 91 125.038 101.73 125.038 115.825C125.038 131.127 134.048 138.365 147.61 144.143L152.308 146.159C160.879 149.908 165.99 152.19 165.99 158.635C165.99 164.013 161.016 167.905 153.229 167.905ZM80.3936 167.787C73.9365 167.787 71.2508 163.359 68.2984 158.121L53 167.383C57.4317 176.762 66.146 184.549 81.1936 184.549C97.8476 184.549 109.257 175.692 109.257 156.232V92.073H90.4635V155.978C90.4635 165.371 86.5683 167.787 80.3936 167.787Z" fill="#F7DF1E"/>
</svg>
