<svg width="55" height="122" viewBox="0 0 55 122" fill="none" xmlns="http://www.w3.org/2000/svg">
<path fill-rule="evenodd" clip-rule="evenodd" d="M51.4459 39.7998C53.0509 44.4428 54.2069 49.1828 54.5869 54.0958C55.0589 60.1908 54.8429 66.2428 53.5579 72.2378C53.5229 72.4028 53.4489 72.5578 53.3939 72.7178C52.9909 72.7188 52.5799 72.6688 52.1859 72.7298C48.8569 73.2528 45.5309 73.7948 42.2049 74.3338C38.7669 74.8908 35.3239 75.4258 31.8919 76.0208C30.6759 76.2308 29.1709 75.9798 28.6799 77.6618C28.6659 77.7078 28.5259 77.7158 28.4449 77.7418L28.6109 67.6908L28.4419 43.4388L30.0439 43.1638C32.6639 42.7348 35.2839 42.2998 37.9059 41.8828C41.0349 41.3858 44.1669 40.9028 47.2979 40.4178C48.6789 40.2028 50.0619 40.0058 51.4459 39.7998V39.7998Z" fill="#439934"/>
<path fill-rule="evenodd" clip-rule="evenodd" d="M25.137 107.042C23.447 105.589 21.698 104.2 20.078 102.672C11.361 94.4497 4.98497 84.7727 1.84497 73.1057C0.979974 69.8947 0.402975 66.6317 0.217975 63.3137C0.0879755 60.9917 -0.100028 58.6487 0.0639723 56.3387C0.500972 50.1947 1.38897 44.1097 3.19097 38.1917L3.28997 38.0537C3.46497 38.2867 3.71697 38.4927 3.80597 38.7557C5.56497 43.9357 7.31097 49.1197 9.04797 54.3067C14.506 70.6067 19.957 86.9107 25.424 103.207C25.531 103.525 25.808 103.786 26.007 104.073L25.137 107.042V107.042Z" fill="#45A538"/>
<path fill-rule="evenodd" clip-rule="evenodd" d="M51.446 39.7996C50.062 40.0056 48.678 40.2026 47.297 40.4156C44.166 40.9006 41.034 41.3836 37.905 41.8806C35.283 42.2976 32.663 42.7326 30.043 43.1616L28.441 43.4366L28.429 42.3916C28.376 41.5326 28.285 40.6746 28.275 39.8156C28.206 34.3376 28.163 28.8596 28.095 23.3816C28.053 19.9526 27.99 16.5246 27.92 13.0966C27.877 10.9666 27.831 8.83564 27.735 6.70864C27.683 5.56564 27.499 4.42864 27.424 3.28564C27.382 2.62864 27.44 1.96664 27.453 1.30664C28.27 2.88964 29.069 4.48464 29.909 6.05564C31.236 8.53964 33.35 10.3696 35.253 12.3666C42.776 20.2586 48.117 29.4346 51.446 39.7996V39.7996Z" fill="#46A037"/>
<path fill-rule="evenodd" clip-rule="evenodd" d="M28.4439 77.741C28.5249 77.715 28.6659 77.707 28.6789 77.661C29.1699 75.979 30.6749 76.23 31.8909 76.02C35.3229 75.426 38.7659 74.89 42.2039 74.333C45.5299 73.794 48.8559 73.252 52.1849 72.729C52.5789 72.667 52.9899 72.718 53.3929 72.717C52.7709 74.937 52.2809 77.205 51.4919 79.364C50.5959 81.813 49.5119 84.203 48.3609 86.546C46.6378 90.0407 44.5051 93.3181 42.0079 96.309C40.0889 98.617 37.9499 100.75 35.8059 102.857C34.6209 104.022 33.2239 104.971 31.9239 106.018L31.5869 105.788L30.3729 104.75L29.1169 101.997C28.259 98.7855 27.7909 95.4824 27.7229 92.159L27.7459 91.598L27.9169 89.172C27.9739 88.344 28.0499 87.517 28.0849 86.687C28.2139 83.705 28.3259 80.723 28.4439 77.741V77.741Z" fill="#409433"/>
<path fill-rule="evenodd" clip-rule="evenodd" d="M28.444 77.7409C28.326 80.7229 28.214 83.7049 28.087 86.6879C28.052 87.5179 27.976 88.3449 27.919 89.1729L27.154 89.4619C25.455 84.4599 23.755 79.5109 22.092 74.5489C19.342 66.3399 16.625 58.1179 13.879 49.9069C11.6611 43.2794 9.42777 36.657 7.17901 30.0399C7.07401 29.7299 6.77201 29.4879 6.56201 29.2139L11.458 20.2119C11.626 20.5039 11.848 20.7769 11.954 21.0909C14.2216 27.793 16.4776 34.499 18.722 41.2089C21.638 49.9389 24.536 58.6759 27.45 67.4069C27.566 67.7559 27.758 68.0779 27.941 68.4689L28.611 67.6889L28.444 77.7409V77.7409Z" fill="#4FAA41"/>
<path fill-rule="evenodd" clip-rule="evenodd" d="M6.56301 29.2148C6.77301 29.4888 7.07402 29.7308 7.18002 30.0408C9.42878 36.658 11.6621 43.2803 13.88 49.9078C16.626 58.1188 19.343 66.3408 22.093 74.5498C23.755 79.5108 25.455 84.4608 27.155 89.4628L27.92 89.1738L27.749 91.5998L27.594 92.1588C27.328 94.8148 27.104 97.4768 26.78 100.127C26.617 101.455 26.271 102.759 26.008 104.074C25.81 103.787 25.532 103.526 25.425 103.208C19.958 86.9108 14.507 70.6078 9.04902 54.3078C7.31262 49.1205 5.56528 43.9368 3.80701 38.7568C3.71801 38.4938 3.46702 38.2878 3.29102 38.0548L6.56301 29.2148V29.2148Z" fill="#4AA73C"/>
<path fill-rule="evenodd" clip-rule="evenodd" d="M28.61 67.6896L27.94 68.4696C27.757 68.0786 27.565 67.7556 27.449 67.4076C24.536 58.6766 21.637 49.9396 18.721 41.2096C16.4766 34.4997 14.2206 27.7937 11.953 21.0916C11.848 20.7776 11.626 20.5036 11.457 20.2126L17.512 12.2476C17.703 12.5026 17.975 12.7296 18.074 13.0166C19.755 17.9376 21.421 22.8646 23.077 27.7946C24.624 32.3986 26.148 37.0096 27.713 41.6076C27.818 41.9156 28.183 42.1336 28.427 42.3936L28.439 43.4386C28.497 51.5206 28.554 59.6056 28.61 67.6896V67.6896Z" fill="#57AE47"/>
<path fill-rule="evenodd" clip-rule="evenodd" d="M28.4289 42.392C28.1849 42.132 27.8199 41.914 27.7149 41.606C26.1499 37.008 24.6259 32.397 23.0789 27.793C21.4229 22.863 19.7569 17.937 18.0759 13.015C17.9769 12.728 17.7049 12.501 17.5139 12.246C19.4829 10.318 21.3909 8.321 23.4389 6.482C25.2599 4.848 26.7239 3.096 26.7909 0.514C26.7939 0.407 26.8499 0.3 26.9359 0L27.4549 1.306C27.4419 1.967 27.3829 2.628 27.4259 3.285C27.5009 4.428 27.6849 5.565 27.7369 6.708C27.8329 8.835 27.8789 10.966 27.9219 13.096C27.9909 16.524 28.0539 19.952 28.0969 23.381C28.1639 28.859 28.2079 34.337 28.2769 39.815C28.2849 40.676 28.3749 41.533 28.4289 42.392V42.392Z" fill="#60B24F"/>
<path fill-rule="evenodd" clip-rule="evenodd" d="M26.006 104.073C26.269 102.758 26.615 101.453 26.778 100.126C27.103 97.4769 27.326 94.8139 27.592 92.1579L27.658 92.1479L27.724 92.1589C27.792 95.4823 28.2601 98.7855 29.118 101.997C28.942 102.229 28.693 102.436 28.6 102.698C27.873 104.748 27.188 106.814 26.457 108.864C26.357 109.144 26.079 109.362 25.883 109.608L25.136 107.042L26.006 104.073V104.073Z" fill="#A9AA88"/>
<path fill-rule="evenodd" clip-rule="evenodd" d="M25.884 109.609C26.08 109.363 26.359 109.145 26.458 108.865C27.189 106.815 27.875 104.75 28.601 102.699C28.694 102.437 28.942 102.23 29.119 101.998L30.374 104.752C30.126 105.104 29.784 105.421 29.646 105.813L27.242 112.872C27.143 113.155 26.805 113.355 26.579 113.594L25.884 109.609V109.609Z" fill="#B6B598"/>
<path fill-rule="evenodd" clip-rule="evenodd" d="M26.5789 113.593C26.8059 113.355 27.1429 113.154 27.2419 112.871L29.6459 105.812C29.7829 105.421 30.1259 105.103 30.3739 104.751L31.5889 105.788C31.0019 106.368 30.6759 107.038 30.8719 107.885L30.5029 109.093C30.3349 109.3 30.0919 109.48 30.0089 109.717C29.1699 112.12 28.3689 114.536 27.5239 116.939C27.4169 117.244 27.1199 117.483 26.9099 117.751C26.8009 116.364 26.6899 114.98 26.5789 113.593V113.593Z" fill="#C2C1A7"/>
<path fill-rule="evenodd" clip-rule="evenodd" d="M26.911 117.751C27.12 117.482 27.417 117.243 27.525 116.939C28.37 114.537 29.171 112.121 30.01 109.717C30.093 109.481 30.335 109.3 30.504 109.093L29.995 114.638C29.859 114.795 29.662 114.932 29.597 115.115C29.022 116.729 28.48 118.355 27.903 119.969C27.784 120.302 27.556 120.596 27.378 120.907C27.22 120.7 26.937 120.5 26.924 120.284C26.873 119.443 26.908 118.596 26.911 117.751V117.751Z" fill="#CECDB7"/>
<path fill-rule="evenodd" clip-rule="evenodd" d="M27.377 120.907C27.555 120.595 27.783 120.301 27.902 119.969C28.48 118.356 29.021 116.73 29.596 115.115C29.661 114.932 29.8589 114.796 29.9939 114.638L30.006 118.278L28.7879 121.402L27.377 120.907V120.907Z" fill="#DBDAC7"/>
<path fill-rule="evenodd" clip-rule="evenodd" d="M28.7878 121.403L30.0058 118.279L30.2568 121.975L28.7878 121.403V121.403Z" fill="#EBE9DC"/>
<path fill-rule="evenodd" clip-rule="evenodd" d="M30.8718 107.886C30.6758 107.039 31.0009 106.368 31.5889 105.789L31.9258 106.019L30.8718 107.886V107.886Z" fill="#CECDB7"/>
<path fill-rule="evenodd" clip-rule="evenodd" d="M27.724 92.1596L27.658 92.1486L27.592 92.1586L27.747 91.5996L27.724 92.1596V92.1596Z" fill="#4FAA41"/>
</svg>
