<svg width="124" height="65" viewBox="0 0 124 65" fill="none" xmlns="http://www.w3.org/2000/svg">
<path d="M0.000999928 58.6586H4.109V42.4356L10.469 56.5786C11.219 58.2906 12.246 58.8956 14.261 58.8956C16.276 58.8956 17.264 58.2906 18.014 56.5786L24.374 42.4356V58.6586H28.482V42.4626C28.482 40.8826 27.85 40.1176 26.546 39.7236C23.425 38.7496 21.331 39.5926 20.383 41.6996L14.142 55.6576L8.099 41.6986C7.19 39.5926 5.057 38.7496 1.936 39.7226C0.632 40.1176 0 40.8816 0 42.4616V58.6586H0.000999928ZM31.899 45.4526H36.006V54.3906C35.968 54.8756 36.162 56.0156 38.412 56.0516C39.56 56.0696 47.274 56.0516 47.346 56.0516V45.4086H51.463C51.482 45.4086 51.459 59.9226 51.459 59.9826C51.481 63.5626 47.018 64.3396 44.96 64.3996H31.988V61.6356C32.01 61.6356 44.951 61.6386 44.983 61.6346C47.628 61.3556 47.315 60.0416 47.314 59.5996V58.5216H38.583C34.521 58.4846 31.933 56.7116 31.9 54.6716C31.898 54.4846 31.989 45.5426 31.899 45.4526V45.4526Z" fill="#00618A"/>
<path d="M54.6299 58.6588H66.4419C67.8249 58.6588 69.1689 58.3698 70.2349 57.8698C72.0119 57.0538 72.8809 55.9477 72.8809 54.4977V51.4958C72.8809 50.3108 71.8939 49.2038 69.9579 48.4678C68.9309 48.0718 67.6659 47.8628 66.4409 47.8628H61.4629C59.8039 47.8628 59.0139 47.3628 58.8169 46.2568C58.7779 46.1248 58.7779 46.0197 58.7779 45.8877V44.0178C58.7779 43.9128 58.7779 43.8068 58.8169 43.6758C59.0139 42.8328 59.4489 42.5958 60.9109 42.4638L61.3059 42.4378H73.0389V39.6998H61.5039C59.8449 39.6998 58.9759 39.8048 58.1859 40.0418C55.7369 40.8058 54.6689 42.0167 54.6689 44.1237V46.5198C54.6689 48.3638 56.7639 49.9438 60.2789 50.3128C60.6749 50.3378 61.0689 50.3658 61.4639 50.3658H65.7309C65.8889 50.3658 66.0469 50.3658 66.1659 50.3908C67.4699 50.4958 68.0219 50.7337 68.4179 51.2067C68.5194 51.3005 68.5999 51.4146 68.6542 51.5416C68.7085 51.6686 68.7353 51.8056 68.7329 51.9437V54.3408C68.7329 54.6298 68.5359 54.9988 68.1409 55.3148C67.7859 55.6308 67.1929 55.8418 66.4029 55.8948L65.9679 55.9208H54.6299V58.6588ZM98.5109 53.8928C98.5109 56.7098 100.605 58.2898 104.831 58.6068C105.226 58.6328 105.621 58.6588 106.016 58.6588H116.722V55.9208H105.938C103.528 55.9208 102.62 55.3148 102.62 53.8658V39.6978H98.5119V53.8928H98.5109ZM75.5029 54.0348V44.2698C75.5029 41.7898 77.2449 40.2848 80.6889 39.8098C81.0559 39.7571 81.4261 39.7307 81.7969 39.7308H89.5959C89.9919 39.7308 90.3479 39.7568 90.7429 39.8098C94.1869 40.2848 95.9299 41.7888 95.9299 44.2698V54.0348C95.9299 56.0488 95.1899 57.1248 93.4849 57.8268L97.5329 61.4798H92.7619L89.4879 58.5238L86.1919 58.7327H81.7969C80.9804 58.7275 80.1685 58.6122 79.3829 58.3898C76.7699 57.6778 75.5029 56.3048 75.5029 54.0348V54.0348ZM79.9369 53.7978C79.9369 53.9298 79.9759 54.0627 80.0159 54.2207C80.2529 55.3557 81.3229 55.9888 82.9449 55.9888H86.6769L83.2489 52.8938H88.0199L91.0089 55.5938C91.5609 55.2988 91.9229 54.8508 92.0499 54.2738C92.0889 54.1418 92.0889 54.0098 92.0889 53.8778V44.5098C92.0889 44.4048 92.0889 44.2718 92.0499 44.1398C91.8119 43.0838 90.7429 42.4778 89.1599 42.4778H82.9439C81.1239 42.4778 79.9359 43.2698 79.9359 44.5098V53.7978H79.9369Z" fill="#E48E00"/>
<path d="M120.336 35.1528C117.811 35.0838 115.882 35.3188 114.232 36.0138C113.763 36.2118 113.016 36.2168 112.94 36.8038C113.197 37.0748 113.237 37.4778 113.442 37.8098C113.836 38.4468 114.501 39.3008 115.094 39.7478C115.741 40.2368 116.409 40.7608 117.105 41.1848C118.34 41.9388 119.72 42.3688 120.911 43.1228C121.612 43.5688 122.308 44.1288 122.993 44.6318C123.332 44.8788 123.558 45.2658 123.999 45.4208V45.3498C123.768 45.0558 123.708 44.6518 123.496 44.3438L122.562 43.4098C121.649 42.1978 120.491 41.1348 119.258 40.2508C118.276 39.5458 116.078 38.5928 115.668 37.4498L115.596 37.3788C116.292 37.2998 117.108 37.0478 117.75 36.8758C118.83 36.5858 119.795 36.6608 120.91 36.3728L122.418 35.9408V35.6548C121.855 35.0768 121.452 34.3108 120.838 33.7878C119.231 32.4188 117.475 31.0508 115.668 29.9088C114.666 29.2768 113.427 28.8658 112.364 28.3298C112.008 28.1488 111.38 28.0558 111.143 27.7548C110.584 27.0438 110.281 26.1428 109.85 25.3138C108.929 23.5229 108.067 21.7026 107.265 19.8558C106.721 18.6108 106.365 17.3828 105.686 16.2658C102.425 10.9048 98.9149 7.66878 93.4779 4.48878C92.3209 3.81178 90.9279 3.54578 89.4569 3.19678L87.0869 3.05278C86.6059 2.85178 86.1039 2.26178 85.6509 1.97578C83.8489 0.83778 79.2289 -1.63722 77.8949 1.61778C77.0529 3.67178 79.1549 5.67578 79.9059 6.71678C80.4329 7.44678 81.1089 8.26478 81.4859 9.08578C81.7339 9.62578 81.7759 10.1668 81.9889 10.7378C82.5099 12.1438 82.9649 13.6748 83.6399 14.9738C83.9809 15.6318 84.3579 16.3248 84.7889 16.9128C85.0529 17.2728 85.5069 17.4328 85.5779 17.9898C85.1349 18.6098 85.1089 19.5738 84.8599 20.3588C83.7379 23.8978 84.1609 28.2968 85.7939 30.9158C86.2949 31.7208 87.4749 33.4448 89.0969 32.7828C90.5159 32.2048 90.1999 30.4138 90.6059 28.8328C90.6979 28.4758 90.6409 28.2118 90.8209 27.9718V28.0438L92.1139 30.6288C93.0709 32.1698 94.7679 33.7788 96.2069 34.8658C96.9529 35.4288 97.5409 36.4038 98.5049 36.7328V36.6598H98.4339C98.2459 36.3688 97.9549 36.2488 97.7149 36.0138C97.1529 35.4628 96.5279 34.7788 96.0639 34.1468C94.7549 32.3708 93.5989 30.4258 92.5449 28.4018C92.0419 27.4358 91.6049 26.3698 91.1809 25.3858C91.0169 25.0068 91.0189 24.4328 90.6789 24.2378C90.2129 24.9578 89.5299 25.5408 89.1699 26.3918C88.5959 27.7518 88.5219 29.4108 88.3089 31.1308L88.1649 31.2018C87.1639 30.9608 86.8129 29.9308 86.4409 29.0478C85.5009 26.8148 85.3259 23.2178 86.1539 20.6468C86.3679 19.9808 87.3349 17.8858 86.9429 17.2708C86.7559 16.6578 86.1389 16.3038 85.7949 15.8338C85.3436 15.2049 84.9585 14.5309 84.6459 13.8228C83.8759 12.0818 83.5169 10.1268 82.7079 8.36578C82.3199 7.52378 81.6659 6.67278 81.1279 5.92478C80.5329 5.09478 79.8659 4.48478 79.4039 3.48278C79.2399 3.12678 79.0169 2.55578 79.2599 2.18978C79.3369 1.94278 79.4479 1.83978 79.6919 1.75878C80.1079 1.43778 81.2679 1.86578 81.7019 2.04578C82.8539 2.52478 83.8149 2.97978 84.7909 3.62578C85.2589 3.93678 85.7319 4.53678 86.2989 4.70278H86.9449C87.9559 4.93478 89.0889 4.77378 90.0329 5.06078C91.7029 5.56878 93.1989 6.35778 94.5569 7.21578C98.6959 9.82978 102.079 13.5498 104.395 17.9878C104.767 18.7028 104.929 19.3838 105.256 20.1418C105.918 21.6698 106.752 23.2428 107.41 24.7378C108.067 26.2288 108.708 27.7338 109.637 28.9748C110.125 29.6268 112.011 29.9768 112.868 30.3388C113.469 30.5928 114.453 30.8578 115.022 31.1998C116.109 31.8558 117.163 32.6368 118.182 33.3548C118.691 33.7168 120.258 34.5038 120.336 35.1528V35.1528ZM88.2369 7.79378C87.8015 7.78664 87.367 7.83504 86.9439 7.93778V8.00878H87.0159C87.2669 8.52578 87.7099 8.85778 88.0209 9.30178L88.7399 10.8098L88.8109 10.7388C89.2559 10.4258 89.4589 9.92478 89.4569 9.15878C89.2779 8.97078 89.2519 8.73578 89.0979 8.51278C88.8939 8.21278 88.4959 8.04478 88.2369 7.79378V7.79378Z" fill="#00618A"/>
</svg>
