<svg width="101" height="137" viewBox="0 0 101 137" fill="none" xmlns="http://www.w3.org/2000/svg">
<path d="M32.5199 105.88C32.5199 105.88 27.288 108.923 36.2433 109.952C47.0924 111.19 52.6372 111.012 64.593 108.75C64.593 108.75 67.7363 110.721 72.1261 112.428C45.3244 123.914 11.4686 111.762 32.5199 105.88Z" fill="#FFFFFF"/>
<path d="M29.2449 90.8906C29.2449 90.8906 23.3768 95.2343 32.3387 96.1613C43.9281 97.3569 53.0805 97.4547 68.9176 94.4051C68.9176 94.4051 71.108 96.6259 74.5524 97.8403C42.1476 107.316 6.0544 98.5876 29.2449 90.8906Z" fill="#FFFFFF"/>
<path d="M56.8544 65.4635C63.4583 73.0667 55.1192 79.9087 55.1192 79.9087C55.1192 79.9087 71.8877 71.2523 64.1867 60.4124C56.9942 50.3035 51.4785 45.2809 81.3383 27.9633C81.3383 27.9633 34.4683 39.6692 56.8544 65.4635Z" fill="#FFFFFF"/>
<path d="M92.3018 116.967C92.3018 116.967 96.1735 120.157 88.0378 122.625C72.5675 127.312 23.6487 128.727 10.0593 122.812C5.17427 120.687 14.3351 117.738 17.2168 117.119C20.222 116.467 21.9394 116.589 21.9394 116.589C16.5068 112.761 -13.1751 124.103 6.86252 127.351C61.508 136.213 106.476 123.361 92.3018 116.967Z" fill="#FFFFFF"/>
<path d="M35.0359 75.3601C35.0359 75.3601 10.1527 81.2702 26.2241 83.4164C33.01 84.325 46.5374 84.1194 59.1378 83.0636C69.4356 82.195 79.7759 80.3481 79.7759 80.3481C79.7759 80.3481 76.1447 81.9031 73.5177 83.6969C48.2493 90.3425 -0.564673 87.2509 13.4882 80.4532C25.3728 74.7084 35.0359 75.3601 35.0359 75.3601Z" fill="#FFFFFF"/>
<path d="M79.6733 100.311C105.36 86.9628 93.4834 74.1358 85.1938 75.8639C83.162 76.2868 82.256 76.6532 82.256 76.6532C82.256 76.6532 83.0103 75.4716 84.4509 74.9602C100.85 69.1946 113.463 91.9648 79.157 100.983C79.157 100.984 79.5544 100.628 79.6733 100.311Z" fill="#FFFFFF"/>
<path d="M64.1867 0C64.1867 0 78.4123 14.2304 50.6943 36.1127C28.4673 53.6661 45.6259 63.6746 50.6851 75.1097C37.7108 63.4038 28.1895 53.099 34.5771 43.5082C43.9528 29.4298 69.9264 22.6041 64.1867 0Z" fill="#FFFFFF"/>
<path d="M37.5599 136.48C62.2158 138.058 100.078 135.604 100.974 123.938C100.974 123.938 99.2507 128.36 80.5977 131.873C59.5534 135.833 33.5982 135.371 18.2039 132.832C18.2043 132.832 21.3553 135.441 37.5599 136.48Z" fill="#FFFFFF"/>
<!-- <path d="M32.5199 105.88C32.5199 105.88 27.288 108.923 36.2433 109.952C47.0924 111.19 52.6372 111.012 64.593 108.75C64.593 108.75 67.7363 110.721 72.1261 112.428C45.3244 123.914 11.4686 111.762 32.5199 105.88Z" fill="#5382A1"/>
<path d="M29.2449 90.8906C29.2449 90.8906 23.3768 95.2343 32.3387 96.1613C43.9281 97.3569 53.0805 97.4547 68.9176 94.4051C68.9176 94.4051 71.108 96.6259 74.5524 97.8403C42.1476 107.316 6.0544 98.5876 29.2449 90.8906Z" fill="#5382A1"/>
<path d="M56.8544 65.4635C63.4583 73.0667 55.1192 79.9087 55.1192 79.9087C55.1192 79.9087 71.8877 71.2523 64.1867 60.4124C56.9942 50.3035 51.4785 45.2809 81.3383 27.9633C81.3383 27.9633 34.4683 39.6692 56.8544 65.4635Z" fill="#E76F00"/>
<path d="M92.3018 116.967C92.3018 116.967 96.1735 120.157 88.0378 122.625C72.5675 127.312 23.6487 128.727 10.0593 122.812C5.17427 120.687 14.3351 117.738 17.2168 117.119C20.222 116.467 21.9394 116.589 21.9394 116.589C16.5068 112.761 -13.1751 124.103 6.86252 127.351C61.508 136.213 106.476 123.361 92.3018 116.967Z" fill="#5382A1"/>
<path d="M35.0359 75.3601C35.0359 75.3601 10.1527 81.2702 26.2241 83.4164C33.01 84.325 46.5374 84.1194 59.1378 83.0636C69.4356 82.195 79.7759 80.3481 79.7759 80.3481C79.7759 80.3481 76.1447 81.9031 73.5177 83.6969C48.2493 90.3425 -0.564673 87.2509 13.4882 80.4532C25.3728 74.7084 35.0359 75.3601 35.0359 75.3601Z" fill="#5382A1"/>
<path d="M79.6733 100.311C105.36 86.9628 93.4834 74.1358 85.1938 75.8639C83.162 76.2868 82.256 76.6532 82.256 76.6532C82.256 76.6532 83.0103 75.4716 84.4509 74.9602C100.85 69.1946 113.463 91.9648 79.157 100.983C79.157 100.984 79.5544 100.628 79.6733 100.311Z" fill="#5382A1"/>
<path d="M64.1867 0C64.1867 0 78.4123 14.2304 50.6943 36.1127C28.4673 53.6661 45.6259 63.6746 50.6851 75.1097C37.7108 63.4038 28.1895 53.099 34.5771 43.5082C43.9528 29.4298 69.9264 22.6041 64.1867 0Z" fill="#E76F00"/>
<path d="M37.5599 136.48C62.2158 138.058 100.078 135.604 100.974 123.938C100.974 123.938 99.2507 128.36 80.5977 131.873C59.5534 135.833 33.5982 135.371 18.2039 132.832C18.2043 132.832 21.3553 135.441 37.5599 136.48Z" fill="#5382A1"/> -->
</svg>
