<svg width="54" height="119" viewBox="0 0 54 119" fill="none" xmlns="http://www.w3.org/2000/svg">
<path fill-rule="evenodd" clip-rule="evenodd" d="M53.2067 52.727C52.8367 47.937 51.7107 43.318 50.1447 38.793C46.9007 28.689 41.6947 19.747 34.3617 12.053C32.5077 10.107 30.4457 8.324 29.1527 5.902C28.3347 4.37 27.5557 2.817 26.7587 1.273L26.2537 0C26.1687 0.292 26.1147 0.396 26.1117 0.501C26.0467 3.018 24.6207 4.725 22.8447 6.318C20.8477 8.111 18.9887 10.057 17.0697 11.936L11.1687 19.699C9.57668 22.624 7.98668 25.549 6.39668 28.474L3.20668 37.091L3.11068 37.225C1.35468 42.993 0.488677 48.923 0.0626774 54.913C-0.0973226 57.164 0.0846756 59.448 0.211676 61.711C0.392676 64.946 0.954678 68.126 1.79768 71.256C4.85968 82.628 11.0737 92.061 19.5687 100.075C21.1477 101.564 22.7677 102.918 24.4157 104.335C24.6977 103.37 24.9227 102.405 25.1787 101.44C25.4347 100.479 25.6937 99.523 25.8667 98.559C25.6927 99.523 25.4977 100.479 25.3047 101.44L24.4787 104.335L25.2167 106.836L25.9007 110.72L26.2267 114.773C26.2237 115.596 26.1907 116.421 26.2407 117.243C26.2527 117.453 26.5287 117.647 26.6827 117.849L28.0587 118.332L29.4927 118.89L29.2467 115.287L29.2357 111.739L29.7307 106.334L30.0897 105.157L31.1167 103.337C32.3847 102.317 33.7457 101.391 34.9007 100.256C36.9907 98.202 39.0757 96.122 40.9457 93.873C43.3797 90.9579 45.458 87.7635 47.1367 84.357C48.2587 82.073 49.3147 79.743 50.1887 77.356C50.9587 75.252 51.4357 73.041 52.0427 70.877C52.0967 70.721 52.1687 70.568 52.2027 70.409C53.4567 64.568 53.6677 58.668 53.2067 52.727V52.727ZM29.6077 102.102L28.8027 100.339L29.6077 102.102L30.7907 103.112L29.6077 102.102Z" fill="#FFFFFF"/>
<!-- <path fill-rule="evenodd" clip-rule="evenodd" d="M53.2067 52.727C52.8367 47.937 51.7107 43.318 50.1447 38.793C46.9007 28.689 41.6947 19.747 34.3617 12.053C32.5077 10.107 30.4457 8.324 29.1527 5.902C28.3347 4.37 27.5557 2.817 26.7587 1.273L26.2537 0C26.1687 0.292 26.1147 0.396 26.1117 0.501C26.0467 3.018 24.6207 4.725 22.8447 6.318C20.8477 8.111 18.9887 10.057 17.0697 11.936L11.1687 19.699C9.57668 22.624 7.98668 25.549 6.39668 28.474L3.20668 37.091L3.11068 37.225C1.35468 42.993 0.488677 48.923 0.0626774 54.913C-0.0973226 57.164 0.0846756 59.448 0.211676 61.711C0.392676 64.946 0.954678 68.126 1.79768 71.256C4.85968 82.628 11.0737 92.061 19.5687 100.075C21.1477 101.564 22.7677 102.918 24.4157 104.335C24.6977 103.37 24.9227 102.405 25.1787 101.44C25.4347 100.479 25.6937 99.523 25.8667 98.559C25.6927 99.523 25.4977 100.479 25.3047 101.44L24.4787 104.335L25.2167 106.836L25.9007 110.72L26.2267 114.773C26.2237 115.596 26.1907 116.421 26.2407 117.243C26.2527 117.453 26.5287 117.647 26.6827 117.849L28.0587 118.332L29.4927 118.89L29.2467 115.287L29.2357 111.739L29.7307 106.334L30.0897 105.157L31.1167 103.337C32.3847 102.317 33.7457 101.391 34.9007 100.256C36.9907 98.202 39.0757 96.122 40.9457 93.873C43.3797 90.9579 45.458 87.7635 47.1367 84.357C48.2587 82.073 49.3147 79.743 50.1887 77.356C50.9587 75.252 51.4357 73.041 52.0427 70.877C52.0967 70.721 52.1687 70.568 52.2027 70.409C53.4567 64.568 53.6677 58.668 53.2067 52.727V52.727ZM29.6077 102.102L28.8027 100.339L29.6077 102.102L30.7907 103.112L29.6077 102.102Z" fill="#4FAA41"/> -->
</svg>
