<svg width="134" height="150" viewBox="0 0 134 150" fill="none" xmlns="http://www.w3.org/2000/svg">
<path d="M66.5554 150C64.5467 150 62.5517 149.473 60.7906 148.459L42.4409 137.595C39.7002 136.063 41.0375 135.521 41.9414 135.208C45.5957 133.929 46.3373 133.64 50.2378 131.425C50.6478 131.191 51.1844 131.273 51.604 131.521L65.701 139.886C66.2101 140.161 66.9324 140.161 67.4043 139.886L122.37 108.159C122.879 107.87 123.209 107.278 123.209 106.673V43.2464C123.209 42.6135 122.879 42.0494 122.359 41.733L67.4153 10.0334C66.9062 9.7307 66.2321 9.7307 65.723 10.0334L10.7908 41.733C10.2583 42.0357 9.91989 42.6273 9.91989 43.2326V106.659C9.91989 107.265 10.2501 107.843 10.7729 108.132L25.8247 116.827C33.9973 120.913 38.9916 116.098 38.9916 111.255V48.6535C38.9916 47.7592 39.6933 47.0713 40.5876 47.0713H47.5494C48.4162 47.0713 49.1316 47.7592 49.1316 48.6535V111.282C49.1316 122.179 43.188 128.439 32.8553 128.439C29.6771 128.439 27.173 128.439 20.1837 124.999L5.76482 116.689C2.20136 114.626 0 110.773 0 106.659V43.2326C0 39.1051 2.20136 35.2527 5.76482 33.2165L60.7851 1.4756C64.266 -0.491866 68.8888 -0.491866 72.3422 1.4756L127.294 33.2302C130.843 35.2802 133.059 39.1189 133.059 43.2464V106.673C133.059 110.787 130.843 114.626 127.294 116.689L72.3422 148.43C70.5811 149.448 68.5862 149.971 66.5499 149.971" fill="#FFFFFF"/>
<path d="M83.5334 106.295C59.4835 106.295 54.441 95.2548 54.441 85.9953C54.441 85.1148 55.1509 84.4131 56.0329 84.4131H63.1323C63.9165 84.4131 64.5769 84.9841 64.7007 85.7587C65.7739 92.9929 68.9659 96.6416 83.5086 96.6416C95.0933 96.6416 100.019 94.0248 100.019 87.8816C100.019 84.3457 98.6154 81.7178 80.6193 79.9567C65.5675 78.4708 56.2668 75.155 56.2668 63.1163C56.2668 52.0269 65.6225 45.4229 81.2935 45.4229C98.8906 45.4229 107.614 51.5316 108.714 64.6572C108.755 65.1113 108.59 65.5515 108.288 65.8817C107.985 66.1982 107.558 66.3908 107.118 66.3908H99.9775C99.2346 66.3908 98.5879 65.868 98.4366 65.1525C96.7168 57.5441 92.5617 55.1088 81.266 55.1088C68.6219 55.1088 67.1497 59.5116 67.1497 62.8136C67.1497 66.8173 68.8833 67.9868 85.9439 70.2432C102.839 72.4858 110.861 75.6503 110.861 87.5239C110.861 99.4938 100.872 106.359 83.4536 106.359L83.5334 106.295Z" fill="#FFFFFF"/>
<!-- <path d="M66.5554 150C64.5467 150 62.5517 149.473 60.7906 148.459L42.4409 137.595C39.7002 136.063 41.0375 135.521 41.9414 135.208C45.5957 133.929 46.3373 133.64 50.2378 131.425C50.6478 131.191 51.1844 131.273 51.604 131.521L65.701 139.886C66.2101 140.161 66.9324 140.161 67.4043 139.886L122.37 108.159C122.879 107.87 123.209 107.278 123.209 106.673V43.2464C123.209 42.6135 122.879 42.0494 122.359 41.733L67.4153 10.0334C66.9062 9.7307 66.2321 9.7307 65.723 10.0334L10.7908 41.733C10.2583 42.0357 9.91989 42.6273 9.91989 43.2326V106.659C9.91989 107.265 10.2501 107.843 10.7729 108.132L25.8247 116.827C33.9973 120.913 38.9916 116.098 38.9916 111.255V48.6535C38.9916 47.7592 39.6933 47.0713 40.5876 47.0713H47.5494C48.4162 47.0713 49.1316 47.7592 49.1316 48.6535V111.282C49.1316 122.179 43.188 128.439 32.8553 128.439C29.6771 128.439 27.173 128.439 20.1837 124.999L5.76482 116.689C2.20136 114.626 0 110.773 0 106.659V43.2326C0 39.1051 2.20136 35.2527 5.76482 33.2165L60.7851 1.4756C64.266 -0.491866 68.8888 -0.491866 72.3422 1.4756L127.294 33.2302C130.843 35.2802 133.059 39.1189 133.059 43.2464V106.673C133.059 110.787 130.843 114.626 127.294 116.689L72.3422 148.43C70.5811 149.448 68.5862 149.971 66.5499 149.971" fill="#689F63"/>
<path d="M83.5334 106.295C59.4835 106.295 54.441 95.2548 54.441 85.9953C54.441 85.1148 55.1509 84.4131 56.0329 84.4131H63.1323C63.9165 84.4131 64.5769 84.9841 64.7007 85.7587C65.7739 92.9929 68.9659 96.6416 83.5086 96.6416C95.0933 96.6416 100.019 94.0248 100.019 87.8816C100.019 84.3457 98.6154 81.7178 80.6193 79.9567C65.5675 78.4708 56.2668 75.155 56.2668 63.1163C56.2668 52.0269 65.6225 45.4229 81.2935 45.4229C98.8906 45.4229 107.614 51.5316 108.714 64.6572C108.755 65.1113 108.59 65.5515 108.288 65.8817C107.985 66.1982 107.558 66.3908 107.118 66.3908H99.9775C99.2346 66.3908 98.5879 65.868 98.4366 65.1525C96.7168 57.5441 92.5617 55.1088 81.266 55.1088C68.6219 55.1088 67.1497 59.5116 67.1497 62.8136C67.1497 66.8173 68.8833 67.9868 85.9439 70.2432C102.839 72.4858 110.861 75.6503 110.861 87.5239C110.861 99.4938 100.872 106.359 83.4536 106.359L83.5334 106.295Z" fill="#689F63"/> -->
</svg>
