<svg width="157" height="156" viewBox="0 0 157 156" fill="none" xmlns="http://www.w3.org/2000/svg">
<!-- <path d="M142.891 23.6183L114.309 9.85688C111.001 8.26399 107.047 8.9359 104.451 11.5323L10.8857 96.8419C8.36903 99.1364 8.37192 103.099 10.8919 105.39L18.5347 112.338C20.5949 114.21 23.6976 114.348 25.9158 112.666L138.59 27.1885C142.37 24.3208 147.8 27.0169 147.8 31.7616V31.4298C147.8 28.0993 145.892 25.0632 142.891 23.6183Z" fill="#0065A9"/> -->
<path d="M142.891 23.6183L114.309 9.85688C111.001 8.26399 107.047 8.9359 104.451 11.5323L10.8857 96.8419C8.36903 99.1364 8.37192 103.099 10.8919 105.39L18.5347 112.338C20.5949 114.21 23.6976 114.348 25.9158 112.666L138.59 27.1885C142.37 24.3208 147.8 27.0169 147.8 31.7616V31.4298C147.8 28.0993 145.892 25.0632 142.891 23.6183Z" fill="#FFFFFF"/>
<g filter="url(#filter0_d_303_28)">
<!-- <path d="M142.891 132.382L114.309 146.143C111.001 147.736 107.047 147.064 104.451 144.468L10.8856 59.1581C8.36891 56.8634 8.3718 52.9012 10.8918 50.6103L18.5345 43.6623C20.5947 41.7894 23.6975 41.6515 25.9157 43.3343L138.59 128.811C142.37 131.679 147.799 128.983 147.799 124.238V124.57C147.799 127.901 145.892 130.937 142.891 132.382Z" fill="#007ACC"/> -->
<path d="M142.891 132.382L114.309 146.143C111.001 147.736 107.047 147.064 104.451 144.468L10.8856 59.1581C8.36891 56.8634 8.3718 52.9012 10.8918 50.6103L18.5345 43.6623C20.5947 41.7894 23.6975 41.6515 25.9157 43.3343L138.59 128.811C142.37 131.679 147.799 128.983 147.799 124.238V124.57C147.799 127.901 145.892 130.937 142.891 132.382Z" fill="#FFFFFF"/>
</g>
<g filter="url(#filter1_d_303_28)">
<!-- <path d="M114.311 146.146C111.001 147.738 107.048 147.064 104.451 144.468C107.65 147.667 113.121 145.401 113.121 140.877V15.1234C113.121 10.5989 107.65 8.33298 104.451 11.5323C107.048 8.93571 111.001 8.26284 114.311 9.85432L142.887 23.5969C145.89 25.041 147.799 28.0781 147.799 31.4101V124.59C147.799 127.922 145.89 130.96 142.887 132.404L114.311 146.146Z" fill="#1F9CF0"/> -->
<path d="M114.311 146.146C111.001 147.738 107.048 147.064 104.451 144.468C107.65 147.667 113.121 145.401 113.121 140.877V15.1234C113.121 10.5989 107.65 8.33298 104.451 11.5323C107.048 8.93571 111.001 8.26284 114.311 9.85432L142.887 23.5969C145.89 25.041 147.799 28.0781 147.799 31.4101V124.59C147.799 127.922 145.89 130.96 142.887 132.404L114.311 146.146Z" fill="#FFFFFF"/>
</g>
<g style="mix-blend-mode:overlay" opacity="0.25">
<!-- <path style="mix-blend-mode:overlay" fill-rule="evenodd" clip-rule="evenodd" d="M107.366 146.41C109.55 147.261 112.042 147.207 114.247 146.146L142.806 132.404C145.807 130.96 147.715 127.923 147.715 124.591V31.4102C147.715 28.0782 145.807 25.041 142.806 23.597L114.247 9.85444C111.353 8.4619 107.966 8.80299 105.426 10.6495C105.063 10.9133 104.717 11.2079 104.393 11.5324L49.72 61.4117L25.9055 43.3346C23.6887 41.6517 20.5878 41.7897 18.5288 43.6625L10.8907 50.6105C8.37224 52.9015 8.36935 56.8637 10.8845 59.1583L31.5372 78.0001L10.8845 96.8421C8.36935 99.1367 8.37224 103.099 10.8907 105.39L18.5288 112.338C20.5878 114.211 23.6887 114.348 25.9055 112.666L49.72 94.5885L104.393 144.468C105.258 145.333 106.273 145.985 107.366 146.41ZM113.057 46.5102L71.5732 78.0001L113.057 109.49V46.5102Z" fill="url(#paint0_linear_303_28)"/> -->
<path style="mix-blend-mode:overlay" fill-rule="evenodd" clip-rule="evenodd" d="M107.366 146.41C109.55 147.261 112.042 147.207 114.247 146.146L142.806 132.404C145.807 130.96 147.715 127.923 147.715 124.591V31.4102C147.715 28.0782 145.807 25.041 142.806 23.597L114.247 9.85444C111.353 8.4619 107.966 8.80299 105.426 10.6495C105.063 10.9133 104.717 11.2079 104.393 11.5324L49.72 61.4117L25.9055 43.3346C23.6887 41.6517 20.5878 41.7897 18.5288 43.6625L10.8907 50.6105C8.37224 52.9015 8.36935 56.8637 10.8845 59.1583L31.5372 78.0001L10.8845 96.8421C8.36935 99.1367 8.37224 103.099 10.8907 105.39L18.5288 112.338C20.5878 114.211 23.6887 114.348 25.9055 112.666L49.72 94.5885L104.393 144.468C105.258 145.333 106.273 145.985 107.366 146.41ZM113.057 46.5102L71.5732 78.0001L113.057 109.49V46.5102Z" fill="#FFFFFF"/>
</g>
<defs>
<filter id="filter0_d_303_28" x="0.666599" y="33.8258" width="155.466" height="121.506" filterUnits="userSpaceOnUse" color-interpolation-filters="sRGB">
<feFlood flood-opacity="0" result="BackgroundImageFix"/>
<feColorMatrix in="SourceAlpha" type="matrix" values="0 0 0 0 0 0 0 0 0 0 0 0 0 0 0 0 0 0 127 0" result="hardAlpha"/>
<feOffset/>
<feGaussianBlur stdDeviation="4.16667"/>
<feColorMatrix type="matrix" values="0 0 0 0 0 0 0 0 0 0 0 0 0 0 0 0 0 0 0.25 0"/>
<feBlend mode="overlay" in2="BackgroundImageFix" result="effect1_dropShadow_303_28"/>
<feBlend mode="normal" in="SourceGraphic" in2="effect1_dropShadow_303_28" result="shape"/>
</filter>
<filter id="filter1_d_303_28" x="96.1176" y="0.66666" width="60.0152" height="154.667" filterUnits="userSpaceOnUse" color-interpolation-filters="sRGB">
<feFlood flood-opacity="0" result="BackgroundImageFix"/>
<feColorMatrix in="SourceAlpha" type="matrix" values="0 0 0 0 0 0 0 0 0 0 0 0 0 0 0 0 0 0 127 0" result="hardAlpha"/>
<feOffset/>
<feGaussianBlur stdDeviation="4.16667"/>
<feColorMatrix type="matrix" values="0 0 0 0 0 0 0 0 0 0 0 0 0 0 0 0 0 0 0.25 0"/>
<feBlend mode="overlay" in2="BackgroundImageFix" result="effect1_dropShadow_303_28"/>
<feBlend mode="normal" in="SourceGraphic" in2="effect1_dropShadow_303_28" result="shape"/>
</filter>
<linearGradient id="paint0_linear_303_28" x1="78.3576" y1="9.00012" x2="78.3576" y2="147" gradientUnits="userSpaceOnUse">
<stop stop-color="white"/>
<stop offset="1" stop-color="white" stop-opacity="0"/>
</linearGradient>
</defs>
</svg>
